<svg xmlns="http://www.w3.org/2000/svg" width="60" height="61" viewBox="0 0 60 61" fill="none"><g opacity="0.5"><path d="M14.5409 48.1048C11.6634 45.6408 9.74745 42.1858 9.03553 38.1772C8.32361 34.1686 8.84775 29.7865 10.5416 25.5858C12.2354 21.385 15.0227 17.5543 18.5508 14.5786C22.0789 11.6029 26.1891 9.61598 30.3612 8.86927C34.5333 8.12256 38.5797 8.64969 41.9882 10.3839C45.3967 12.1181 48.0142 14.9814 49.5091 18.6115C51.0041 22.2415 51.3095 26.4751 50.3866 30.7763C49.4636 35.0775 47.354 39.253 44.3246 42.7742C40.2673 47.4813 34.8558 50.6848 29.2742 51.6838C23.6925 52.6828 18.3951 51.396 14.5409 48.1048ZM43.8774 13.942C41.239 11.6694 37.8339 10.4078 34.0928 10.3169C30.3516 10.226 26.4427 11.3099 22.8605 13.4314C19.2783 15.5529 16.1838 18.6166 13.9685 22.235C11.7533 25.8534 10.5168 29.8639 10.4156 33.759C10.3143 37.6542 11.3528 41.2589 13.3997 44.1171C15.4466 46.9754 18.4099 48.9587 21.9146 49.8162C25.4194 50.6737 29.3081 50.3668 33.0889 48.9344C36.8696 47.502 40.3723 45.0083 43.154 41.769C46.8801 37.4299 49.0493 32.062 49.1849 26.8444C49.3205 21.6268 47.4116 16.9862 43.8774 13.942Z" fill="#BA68C8"></path></g><path d="M33.9386 33.8555C33.0871 34.847 32.015 35.6104 30.8578 36.049C29.7006 36.4876 28.5102 36.5819 27.4373 36.3198C26.3644 36.0577 25.4571 35.451 24.8301 34.5765C24.2031 33.702 23.8845 32.5989 23.9148 31.4068C23.9451 30.2147 24.3228 28.987 25.0001 27.879C25.6774 26.7711 26.624 25.8327 27.72 25.1824C28.8161 24.5321 30.0126 24.1991 31.158 24.2256C32.3034 24.2521 33.3463 24.6369 34.155 25.3313C34.6948 25.7903 35.1177 26.3754 35.3992 27.0533C35.6807 27.7311 35.8152 28.4881 35.7951 29.2805C35.775 30.073 35.6006 30.8852 35.282 31.6704C34.9633 32.4556 34.5067 33.1983 33.9386 33.8555Z" fill="#E0E0E0"></path></svg>