<svg xmlns="http://www.w3.org/2000/svg" width="408" height="255" viewBox="0 0 408 255" fill="none"><path d="M98.2826 81.7236L62.4288 105.862L57.7122 73.3734L61.7035 70.6861L67.0241 77.2921L98.2826 81.7236Z" fill="#BA68C8"></path><path d="M61.7038 70.686L64.0268 71.6636L68.7705 77.5332L67.0244 77.292L61.7038 70.686Z" fill="#BA68C8"></path><path opacity="0.1" d="M61.7038 70.686L64.0268 71.6636L68.7705 77.5332L67.0244 77.292L61.7038 70.686Z" fill="black"></path><path d="M45.0773 117.508C43.2236 118.498 42.3157 120.638 42.7602 123.732C43.6303 129.388 48.9462 135.874 54.645 138.219C57.2262 139.305 59.4669 139.315 61.0219 138.488L59.1287 140.063C57.5094 141.345 54.9281 141.514 51.8903 140.235C46.0628 137.783 40.6144 131.198 39.7061 125.366C39.2171 122.134 40.234 119.858 42.2308 118.917L45.0773 117.508Z" fill="#BA68C8"></path><path d="M55.4353 112.447L70.8476 130.134L62.4854 137.237L61.0341 138.461C59.4791 139.287 57.2465 139.26 54.6572 138.192C48.9583 135.847 43.6425 129.361 42.7723 123.705C42.3075 120.656 43.2358 118.471 45.0895 117.481L45.4961 117.287L55.4353 112.447Z" fill="#455A64"></path><path d="M66.7014 125.374L62.1667 124.27L48.692 134.136C50.3828 135.834 52.4118 137.214 54.6574 138.191C57.2385 139.278 59.4792 139.287 61.0343 138.461L62.4855 137.237L70.8478 130.134L66.7014 125.374Z" fill="#37474F"></path><path d="M166.712 45.6394C159.645 45.3846 152.604 45.8428 145.712 47.0058C134.026 49.0191 121.603 52.6108 117.172 55.2522C108.584 60.3184 52.9088 106.534 52.9088 106.534C51.0319 108.072 50.1766 110.748 50.7197 114.357C51.8912 122.039 59.1202 130.853 66.8764 134.031C70.4006 135.514 73.431 135.502 75.5711 134.375C75.5711 134.375 132.547 104.469 147.789 92.2355C154.86 86.5523 160.495 77.1964 164.559 68.8318L164.967 67.9303C167.594 62.3781 169.837 56.6641 171.684 50.8217V50.8217C171.956 49.931 171.859 48.964 171.413 48.1053C170.966 47.2465 170.201 46.5561 169.263 46.1656C168.443 45.8641 167.581 45.6864 166.712 45.6394V45.6394Z" fill="#FAFAFA"></path><path d="M50.7219 114.326C51.2631 117.389 52.4675 120.345 54.262 123.015L94.4877 85.7275L94.0987 83.0852L50.5746 112.247C50.5706 112.94 50.6198 113.635 50.7219 114.326V114.326Z" fill="#F0F0F0"></path><path d="M171.662 50.7913C171.897 50.0213 171.857 49.191 171.549 48.4209C171.241 47.6507 170.68 46.9805 169.947 46.5075C170.525 51.5037 156.285 70.6178 148.756 76.8166C142.826 81.7027 103.975 105.91 103.975 105.91L65.7982 129.071L62.2547 131.421C63.6799 132.456 65.2303 133.328 66.8706 134.018C70.3948 135.501 73.4252 135.489 75.5653 134.362C75.5653 134.362 132.541 104.456 147.784 92.2224C154.854 86.5393 160.489 77.1833 164.553 68.8188L164.961 67.9173C167.588 62.365 169.831 56.6511 171.678 50.8087L171.662 50.7913Z" fill="#F0F0F0"></path><path d="M56.5491 103.473C55.1772 105.149 54.6503 107.674 55.1041 110.826C56.342 118.858 63.8978 128.1 72.0032 131.446C74.2268 132.476 76.7128 132.847 79.1101 132.506L75.5712 134.375C73.4311 135.502 70.413 135.488 66.8765 134.031C59.1285 130.835 51.8995 122.021 50.7199 114.357C50.1686 110.767 51.06 108.062 52.909 106.534L56.5491 103.473Z" fill="#BA68C8"></path><path opacity="0.1" d="M50.5746 112.247C50.5706 112.94 50.6198 113.635 50.7219 114.326C51.2631 117.389 52.4675 120.345 54.262 123.015L58.35 119.199C56.7016 116.594 55.5836 113.747 55.0542 110.806C54.9836 110.283 54.9386 109.781 54.9094 109.296L50.5746 112.247Z" fill="black"></path><path opacity="0.1" d="M78.07 133.109L79.1724 132.5C76.775 132.828 74.2935 132.455 72.0696 131.431C70.2136 130.645 68.4671 129.639 66.8754 128.441L65.8524 129.083L62.3089 131.433C62.6238 131.652 62.9387 131.87 63.2675 132.083L63.5806 132.279C63.8581 132.45 64.1355 132.62 64.4071 132.777C64.6787 132.935 64.8241 132.953 65.0139 133.108C65.2038 133.263 65.4408 133.288 65.6307 133.443C66.0775 133.631 66.4939 133.86 66.9411 133.994C70.4654 135.477 73.4958 135.465 75.6359 134.338L78.07 133.109Z" fill="black"></path><path d="M65.7881 129.067L101.642 104.928L77.122 146.916L74.492 158.878L70.5048 161.556L65.7881 129.067Z" fill="#BA68C8"></path><path d="M70.5049 161.556L72.8378 162.538L76.8152 159.856L79.4551 147.898L103.975 105.911L101.642 104.929L77.1221 146.916L74.4922 158.878L70.5049 161.556Z" fill="#BA68C8"></path><path d="M54.6569 112.548L94.4881 85.727L34.6857 95.431L21.3864 94.1905L17.3992 96.8687L54.6569 112.548Z" fill="#BA68C8"></path><path opacity="0.15" d="M54.6569 112.548L94.4881 85.727L34.6857 95.431L21.3864 94.1905L17.3992 96.8687L54.6569 112.548Z" fill="black"></path><path d="M17.0199 94.2308L17.399 96.8689L21.3862 94.1907L34.6854 95.4312L94.4879 85.7272L94.0988 83.085L34.3005 92.78L20.9972 91.5485L17.0199 94.2308Z" fill="#BA68C8"></path><path d="M169.241 46.1353C168.427 45.8462 167.573 45.6789 166.712 45.6397C162.559 45.4688 158.411 45.5697 154.299 45.9415C149.633 51.0377 161.104 62.7534 167.743 61.6313C170.326 55.3685 171.678 50.8088 171.678 50.8088C171.954 49.9141 171.858 48.9417 171.408 48.0788C170.958 47.2159 170.186 46.5236 169.241 46.1353Z" fill="#BA68C8"></path><path opacity="0.1" d="M20.9972 91.5485L21.3862 94.1907L34.6854 95.4312L34.3005 92.78L20.9972 91.5485Z" fill="black"></path><path opacity="0.05" d="M34.3005 92.7802L94.0989 83.0851L94.488 85.7274L34.6855 95.4314L34.3005 92.7802Z" fill="black"></path><path opacity="0.15" d="M70.5049 161.556L74.4922 158.878L76.8152 159.856L72.8378 162.538L70.5049 161.556Z" fill="black"></path><path opacity="0.05" d="M79.4553 147.898L77.1223 146.916L101.642 104.929L103.975 105.91L79.4553 147.898Z" fill="black"></path><path opacity="0.1" d="M77.1224 146.916L74.4924 158.878L76.8154 159.855L79.4553 147.898L77.1224 146.916Z" fill="black"></path><path opacity="0.1" d="M171.804 49.9283L171.798 49.4967L171.763 49.2351L171.685 48.8588L171.606 48.5895L171.458 48.2375L171.336 47.9826L171.128 47.659L170.961 47.4277C170.877 47.321 170.784 47.2208 170.683 47.1282C170.622 47.0589 170.557 46.9923 170.489 46.9288C170.326 46.7747 170.148 46.635 169.957 46.5117V46.5117C170.233 48.9345 167.033 54.6801 162.792 60.6637C164.304 61.4787 166.038 61.8321 167.737 61.6714L168.169 60.7159L168.307 60.4094L168.665 59.487L168.734 59.3338L169.819 56.464L169.843 56.4099L170.153 55.5423L171.127 52.7334L171.204 52.5622L171.58 51.39L171.637 51.2638L171.715 51.0925L171.752 51.0114L171.821 50.8582C171.89 50.6496 171.932 50.4334 171.947 50.2137L171.804 49.9283Z" fill="black"></path><path opacity="0.1" d="M45.9587 136.184C47.666 137.874 49.7029 139.249 51.9521 140.229C55.0098 141.516 57.5753 141.33 59.1905 140.057L61.0838 138.482C59.5287 139.308 57.2962 139.281 54.7069 138.213C52.4614 137.235 50.4323 135.855 48.7415 134.157L45.9587 136.184Z" fill="black"></path><path d="M128.411 51.8492C128.411 51.8492 125.233 55.1684 125.88 62.8334C126.298 67.7557 128.219 72.5281 131.418 76.5909L140.222 69.3733C140.222 69.3733 135.721 59.2817 137.365 49.6841C134.295 50.1163 131.294 50.8418 128.411 51.8492V51.8492Z" fill="#455A64"></path><path d="M123.454 95.4386C122.013 94.8484 120.632 94.1305 119.33 93.2954C117.171 91.9038 114.552 91.1881 112.959 92.2557C111.366 93.3234 111.478 95.6884 113.578 97.1084C114.854 97.9512 116.206 98.6887 117.615 99.3118L123.454 95.4386Z" fill="#E0E0E0"></path><path d="M100.861 118.725L101.463 118.489C102.018 118.27 102.587 118.087 103.167 117.941C105.383 117.338 107.701 117.169 109.986 117.446C111.73 117.667 113.411 118.223 114.93 119.079C116.449 119.936 117.776 121.076 118.832 122.434L119.3 123.025L119.422 123.176C119.422 123.176 119.422 123.101 119.422 123.176V123.262L119.623 123.606C119.868 124.079 120.18 124.552 120.38 125.036C120.787 126.025 121.118 127.042 121.372 128.078C121.944 130.4 122.361 132.756 122.62 135.13C123.199 140.129 123.511 145.59 124.001 151.395C124.28 154.297 124.536 157.286 125.048 160.339C125.493 163.52 126.32 166.64 127.51 169.637C128.891 172.766 130.954 175.571 133.56 177.861C136.205 180.194 139.287 182.018 142.64 183.236C145.985 184.528 149.504 185.354 153.09 185.687C156.674 186.047 160.286 186.069 163.875 185.752C170.955 184.989 177.899 183.33 184.53 180.817C190.981 178.442 197.286 176.227 203.47 174.367C209.374 172.507 215.399 171.027 221.507 169.938C222.944 169.627 224.393 169.498 225.796 169.293C227.2 169.089 228.604 168.917 229.974 168.853C231.344 168.788 232.693 168.627 234.007 168.595H237.895C242.479 168.667 247.038 169.262 251.476 170.368L254.339 171.089L256.913 172.013L259.286 172.852C260.021 173.174 260.701 173.518 261.358 173.819C262.662 174.464 263.865 174.948 264.834 175.518L267.285 176.98L269.335 178.194L272.444 173.733L270.215 172.443L267.497 170.895C266.383 170.304 265.091 169.82 263.642 169.111C262.918 168.799 262.16 168.433 261.347 168.111L258.729 167.219L255.877 166.273L252.735 165.542C247.902 164.439 242.951 163.89 237.985 163.908L233.829 163.994C232.425 164.069 231.01 164.241 229.562 164.359C228.114 164.477 226.654 164.682 225.172 164.918C223.691 165.155 222.187 165.327 220.716 165.671C214.445 166.916 208.267 168.56 202.222 170.594C195.961 172.637 189.577 175.023 183.204 177.517C176.918 180.049 170.314 181.773 163.563 182.645C160.196 183.004 156.8 183.047 153.424 182.774C150.097 182.538 146.821 181.843 143.698 180.71C140.634 179.654 137.805 178.046 135.365 175.969C132.983 173.975 131.081 171.502 129.794 168.724C128.633 165.922 127.811 163 127.343 160.016C126.786 157.06 126.452 154.114 126.118 151.244C125.505 145.493 125.093 140.01 124.391 134.958C124.076 132.519 123.596 130.102 122.954 127.723C122.643 126.582 122.245 125.464 121.762 124.38C121.528 123.853 121.216 123.423 120.96 122.95L120.748 122.606V122.52L120.681 122.423L120.547 122.262L120.035 121.628C118.736 120.047 117.108 118.747 115.255 117.812C113.68 117.031 111.969 116.535 110.208 116.35C107.769 116.098 105.302 116.325 102.956 117.016C102.335 117.18 101.728 117.389 101.14 117.64L100.549 117.887L100.861 118.725Z" fill="#E0E0E0"></path><path d="M293.574 207.989C295.071 211.023 296.688 214.055 295.295 215.507C293.901 216.958 289.063 216.898 286.247 210.751C283.43 204.604 285.117 202.726 286.881 201.972C288.644 201.219 292.394 205.593 293.574 207.989Z" fill="#263238"></path><path d="M269.253 167.395C270.485 168.746 269.606 172.982 268.819 176.157C268.031 179.333 267.047 182.267 265.829 182.421C264.611 182.575 261.361 182.251 261.142 176.981C260.923 171.712 263.455 168.307 264.989 167.287C266.522 166.267 268.194 166.239 269.253 167.395Z" fill="#263238"></path><path d="M297.381 197.435C296.968 198.152 296.409 198.78 295.738 199.282C295.067 199.784 294.298 200.15 293.476 200.357C286.454 202.167 278.275 209.543 273.489 213.16C273.432 219.925 278.929 221.222 278.929 221.222C278.929 221.222 303.52 210.918 306.173 209.219C310.183 206.643 314.357 201.629 317.736 195.515C320.424 190.761 322.859 185.877 325.032 180.884L304.331 157.888C300.869 158.844 297.547 160.223 294.447 161.991C289.521 164.842 283.534 168.757 278.891 170.301C278.086 170.563 277.234 170.666 276.387 170.602C275.539 170.538 274.714 170.309 273.961 169.929C267.501 166.717 256.309 166.871 250.25 166.422C245.493 171.416 248.655 175.967 248.655 175.967C248.655 175.967 274.04 184.293 277.19 184.752C281.961 185.445 287.704 185.207 294.478 182.87C301.252 180.534 304.725 179.588 304.725 179.588C304.725 179.588 299.735 193.29 297.381 197.435Z" fill="#F0F0F0"></path><path d="M292.114 216.3C292.114 216.3 285.276 219.062 283.616 220.175C282.226 221.108 281.473 222.276 281.675 224.762C281.965 228.333 283.177 233.278 283.169 237.05C283.145 239.471 281.193 240.556 278.186 238.898C276.348 237.873 273.165 235.313 271.556 230.486C270.675 227.857 271.053 223.566 269.766 221.721C268.479 219.875 266.175 216.707 267.026 214.461C269.35 212.215 272.251 211.826 274.192 210.824C277.401 209.177 283.06 204.863 284.825 203.605C284.825 203.605 283.688 206.77 286.313 211.212C288.939 215.654 292.114 216.3 292.114 216.3Z" fill="#455A64"></path><path d="M287.104 202.591C286.146 203.139 285.58 204.194 285.597 205.834C285.641 209.108 288.075 213.063 291.035 214.669C292.4 215.412 293.639 215.522 294.589 215.093C294.589 215.093 295.345 214.737 295.383 214.23L296.716 213.65C296.829 214.093 296.812 214.559 296.667 214.994C296.523 215.429 296.256 215.817 295.896 216.115C295.067 216.786 292.661 217.868 289.589 216.021C286.518 214.175 283.636 209.473 283.64 206.096C283.649 203.027 285.815 201.331 287.014 201.054C287.456 200.937 287.926 200.954 288.359 201.101C288.792 201.249 289.167 201.521 289.436 201.881L288.232 202.503C288.05 202.431 287.853 202.402 287.657 202.418C287.462 202.433 287.272 202.492 287.104 202.591V202.591Z" fill="#BA68C8"></path><path d="M262.236 180.951C262.236 180.951 255.651 179.017 253.63 178.766C251.948 178.56 250.56 178.956 249.004 180.919C246.737 183.763 245.195 187.026 242.57 189.822C240.892 191.607 238.667 191.145 237.61 187.975C236.956 186.026 236.368 182.878 237.777 177.999C238.671 174.901 241.566 172.733 241.898 170.532C242.23 168.331 243.447 164.76 245.638 163.643C248.924 163.474 250.615 164.793 252.747 165.31C256.292 166.163 263.45 166.633 265.65 166.827C265.65 166.827 262.61 168.436 261.492 173.438C260.373 178.441 262.236 180.951 262.236 180.951Z" fill="#455A64"></path><path d="M268.033 167.538C266.944 167.325 265.791 167.742 264.659 168.977C262.411 171.434 261.471 175.945 262.552 179.048C263.047 180.493 263.9 181.37 264.899 181.675C264.899 181.675 265.699 181.914 266.09 181.552L267.506 181.992C267.276 182.393 266.937 182.725 266.525 182.953C266.113 183.181 265.644 183.295 265.17 183.284C264.09 183.238 261.551 182.491 260.55 179.131C259.55 175.77 260.68 170.424 263.03 167.923C265.168 165.652 267.953 165.795 269.04 166.365C269.457 166.564 269.803 166.881 270.031 167.273C270.26 167.665 270.361 168.114 270.321 168.562L268.899 168.195C268.823 168.025 268.703 167.875 268.552 167.761C268.401 167.646 268.223 167.569 268.033 167.538V167.538Z" fill="#BA68C8"></path><path d="M314.044 182.188C314.044 182.188 309.631 183.214 306.957 182.666C306.957 182.666 302.312 190.53 300.075 194.359C297.838 198.187 295.487 199.453 295.487 199.453C296.276 198.929 296.929 198.237 297.396 197.43C299.767 193.274 304.756 179.603 304.756 179.603C304.756 179.603 308.091 181.555 314.044 182.188Z" fill="#E0E0E0"></path><path d="M364.538 182.829C365.273 182.699 368.195 181.071 369.587 179.888C370.772 178.875 372.175 179.585 371.72 181.05C371.265 182.515 370.267 182.981 370.757 183.211C371.248 183.441 373.652 182.733 375.72 181.918C377.576 181.177 381.302 180.773 380.639 185.242C379.976 189.711 374.92 191.303 372.163 191.971C369.406 192.64 364.722 192.057 362.716 191.007L364.538 182.829Z" fill="#455A64"></path><path d="M362.301 183.079C362.747 182.068 364.355 182.417 365.251 183.399C365.743 183.997 366.102 184.687 366.305 185.424C366.509 186.162 366.553 186.932 366.436 187.687C366.179 189.739 364.737 191.512 363.022 192.057C361.082 192.684 360.388 191.305 360.388 191.305L362.301 183.079Z" fill="#BA68C8"></path><path d="M340.596 162.919C339.524 165.807 338.846 174.841 338.897 178.271C338.947 181.701 339.741 185.232 341.002 186.742C342.056 188.006 348.569 191.13 360.397 191.317C361.401 191.332 362.832 190.959 363.502 190.281C365.169 188.523 365.331 186.596 364.472 184.828C364.249 184.417 363.943 184.053 363.573 183.756C363.203 183.459 362.776 183.235 362.316 183.098C359.415 182.538 352.177 181.387 350.441 180.058C349.399 177.715 350.557 173.523 351.408 169.953C352.259 166.384 354.516 160.539 352.052 158.614C346.847 154.542 340.547 160.75 340.596 162.919Z" fill="#F0F0F0"></path><path d="M327.859 178.629C327.867 179.866 326.138 181.135 324.025 180.914C321.913 180.694 316.814 179.241 311.849 174.453C306.283 169.075 304.361 163.017 304.18 159.577C303.995 156.016 306.666 156.088 306.666 156.088L327.859 178.629Z" fill="#BA68C8"></path><path d="M339.197 144.897C336.637 135.515 342.443 125.906 352.166 123.435C361.889 120.964 371.847 126.567 374.408 135.949C376.969 145.331 371.163 154.939 361.439 157.41C351.716 159.881 341.758 154.279 339.197 144.897Z" fill="#455A64"></path><path d="M342.044 155.762C337.972 158.315 336.488 163.083 338.726 166.405C340.965 169.726 345.572 169.371 349.644 166.817C353.717 164.264 355.904 159.409 352.934 157.438C350.522 154.231 346.12 153.212 342.044 155.762Z" fill="#BA68C8"></path><path opacity="0.1" d="M342.044 155.762C337.972 158.315 336.488 163.083 338.726 166.405C340.965 169.726 345.572 169.371 349.644 166.817C353.717 164.264 355.904 159.409 352.934 157.438C350.522 154.231 346.12 153.212 342.044 155.762Z" fill="black"></path><path d="M353.276 157.839C353.014 159.573 351.224 162.899 346.735 165.634C343.557 167.575 340.012 168.542 336.748 171.354C334.491 173.302 331.842 177.384 327.859 178.629C325.766 179.283 319.535 177.946 313.909 173.103C308.282 168.26 305.131 158.854 306.947 155.415C308.829 151.847 316.213 145.782 320.14 143.347C324.068 140.912 332.337 136.298 337.91 136.93C349.497 141.55 353.274 148.98 353.276 157.839Z" fill="#FAFAFA"></path><path d="M355.553 146.233C353.034 143.038 353.677 138.476 356.989 136.046C360.301 133.615 365.028 134.236 367.547 137.431C370.066 140.627 369.423 145.188 366.111 147.619C362.799 150.05 358.072 149.429 355.553 146.233Z" fill="#263238"></path><path d="M349.405 134.963C349.405 134.963 345.579 139.25 345.135 140.165C344.871 140.756 344.851 141.422 345.081 142.025L348.239 139.602L349.405 134.963Z" fill="#263238"></path><path d="M356.87 131.337C356.651 130.98 356.35 130.676 355.991 130.449C355.632 130.221 355.224 130.076 354.798 130.024C353.362 129.835 351.15 132.16 349.405 134.963L350.583 136.882L356.87 131.337Z" fill="#263238"></path><path d="M350.998 137.417C350.499 137.224 350.804 136.198 350.933 135.414C351.062 134.63 350.587 132.729 348.474 133.161C346.362 133.593 345.296 136.481 345.813 137.873C346.711 140.27 348.223 139.615 348.223 139.615L342.453 144.116C342.453 144.116 340.695 144.704 342.916 148.486C345.137 152.268 347.058 152.449 347.606 150.27L348.458 149.601C348.995 150.567 349.637 151.474 350.373 152.309C351.725 153.566 353.592 153.607 355.531 152.873C358.639 151.686 360.92 150.429 365.492 146.141C370.51 141.446 365.682 135.197 360.858 133.456C356.034 131.714 350.998 137.417 350.998 137.417Z" fill="#FFA8A7"></path><path d="M350.386 137.865C350.243 137.684 350.868 136.157 350.937 135.411C351.03 134.385 356.779 131.385 356.87 131.337C357.173 131.182 357.382 130.867 357.734 130.702C358.181 130.507 358.657 130.383 359.144 130.333C360.099 130.222 360.95 130.623 361.838 130.965C363.373 131.556 364.7 132.56 365.662 133.856C366.667 135.132 367.157 136.251 368.083 138.113C368.852 139.668 369.946 141.53 371.407 142.509C372.382 143.166 371.032 144.026 369.707 144.502C368.769 144.818 367.763 144.898 366.784 144.732C365.348 144.544 363.754 143.421 362.87 142.405C360.513 139.717 358.746 136.192 358.433 135.657C358.009 134.931 357.65 134.908 355.577 135.889C353.752 136.744 350.87 138.455 350.386 137.865Z" fill="#263238"></path><path d="M356.465 131.64L355.968 128.624C356.171 128.583 356.382 128.581 356.586 128.62C356.79 128.659 356.984 128.738 357.155 128.851C357.327 128.964 357.473 129.11 357.585 129.279C357.697 129.449 357.772 129.638 357.805 129.836C357.865 130.245 357.759 130.661 357.509 130.997C357.26 131.333 356.886 131.563 356.465 131.64V131.64Z" fill="#263238"></path><path d="M348.462 149.598C348.462 149.598 346.626 145.937 346.363 144.378C346.198 143.468 346.324 142.53 346.723 141.69C346.183 142.352 345.785 143.111 345.553 143.922C345.119 145.521 347.61 150.266 347.61 150.266L348.462 149.598Z" fill="#F28F8F"></path><path d="M355.932 143.227C355.799 143.318 355.641 143.369 355.478 143.373C355.315 143.377 355.154 143.335 355.015 143.252C354.877 143.169 354.767 143.048 354.699 142.905C354.631 142.762 354.609 142.603 354.634 142.447C354.66 142.292 354.732 142.147 354.842 142.031C354.952 141.915 355.095 141.833 355.254 141.795C355.412 141.757 355.578 141.764 355.732 141.817C355.886 141.87 356.02 141.965 356.118 142.091C356.183 142.177 356.231 142.275 356.257 142.379C356.283 142.483 356.287 142.591 356.27 142.696C356.253 142.802 356.214 142.903 356.156 142.994C356.098 143.086 356.022 143.165 355.932 143.227Z" fill="#263238"></path><path d="M357.89 140.728L356.038 139.938C356.154 139.698 356.362 139.511 356.618 139.417C356.875 139.323 357.159 139.329 357.411 139.433C357.533 139.485 357.642 139.561 357.733 139.655C357.823 139.749 357.893 139.86 357.938 139.981C357.983 140.102 358.002 140.231 357.993 140.359C357.985 140.488 357.95 140.613 357.89 140.728V140.728Z" fill="#263238"></path><path d="M352.196 146.404L352.778 148.269C352.652 148.312 352.518 148.33 352.385 148.322C352.251 148.314 352.121 148.28 352.001 148.222C351.882 148.164 351.775 148.084 351.689 147.985C351.602 147.887 351.537 147.773 351.497 147.65C351.426 147.395 351.459 147.124 351.589 146.892C351.719 146.66 351.936 146.485 352.196 146.404V146.404Z" fill="#F28F8F"></path><path d="M362.344 147.481L362.355 145.51C362.488 145.505 362.621 145.526 362.746 145.571C362.871 145.617 362.984 145.687 363.08 145.776C363.176 145.866 363.252 145.973 363.303 146.092C363.355 146.211 363.381 146.338 363.38 146.467C363.374 146.731 363.263 146.984 363.071 147.172C362.878 147.361 362.618 147.471 362.344 147.481Z" fill="#263238"></path><path d="M360.289 148.387C360.156 148.477 359.998 148.528 359.835 148.533C359.672 148.537 359.512 148.495 359.373 148.412C359.235 148.329 359.125 148.209 359.057 148.066C358.989 147.924 358.966 147.765 358.991 147.609C359.016 147.454 359.087 147.309 359.197 147.193C359.306 147.076 359.449 146.994 359.607 146.955C359.765 146.916 359.931 146.923 360.085 146.975C360.239 147.027 360.373 147.121 360.472 147.246C360.538 147.333 360.585 147.431 360.611 147.535C360.638 147.639 360.642 147.747 360.625 147.853C360.608 147.959 360.57 148.061 360.512 148.152C360.455 148.244 360.379 148.324 360.289 148.387V148.387Z" fill="#263238"></path><path d="M358.806 144.038L355.005 147.157L357.287 148.639L358.806 144.038Z" fill="#F28F8F"></path><path d="M342.095 151.219C344.308 154.027 347.335 156.138 350.791 157.286C354.248 158.434 357.98 158.567 361.515 157.669C365.05 156.77 368.229 154.88 370.651 152.238C373.073 149.595 374.628 146.32 375.121 142.824C375.613 139.329 375.02 135.771 373.416 132.601C371.813 129.431 369.271 126.791 366.113 125.015C362.954 123.239 359.321 122.407 355.672 122.623C352.023 122.84 348.523 124.095 345.614 126.231C341.718 129.098 339.16 133.339 338.501 138.023C337.841 142.708 339.134 147.453 342.095 151.219V151.219ZM371.061 129.963C373.208 132.688 374.471 135.966 374.688 139.383C374.904 142.8 374.066 146.203 372.279 149.16C370.492 152.118 367.836 154.497 364.647 155.998C361.458 157.499 357.88 158.054 354.364 157.593C350.849 157.131 347.554 155.675 344.896 153.406C342.239 151.138 340.338 148.16 339.434 144.85C338.531 141.539 338.665 138.044 339.82 134.807C340.975 131.57 343.098 128.736 345.922 126.664C347.797 125.285 349.935 124.276 352.215 123.694C354.494 123.113 356.87 122.971 359.206 123.276C361.542 123.582 363.793 124.328 365.83 125.474C367.867 126.619 369.65 128.14 371.077 129.951L371.061 129.963Z" fill="#BA68C8"></path><path d="M336.056 143.386C336.868 149.563 342.351 156.518 348.306 158.927C352.082 160.449 354.776 160.256 356.295 157.985C350.893 158.222 345.827 155.52 342.312 151.061C338.796 146.601 337.426 141.243 339.112 136.291C336.438 137.097 335.54 139.471 336.056 143.386Z" fill="#BA68C8"></path><path d="M334.355 167.158L332.841 168.505C334.722 170.474 335.679 174.605 334.035 177.372C332.61 179.771 327.161 183.659 324.049 182.978C323.764 183.523 323.434 184.126 323.075 184.774C327.356 186.038 333.933 181.516 335.812 178.36C337.96 174.795 336.778 169.692 334.355 167.158Z" fill="#E0E0E0"></path><path d="M334.48 166.532L334.947 167.009C335.043 167.111 335.096 167.244 335.096 167.382C335.097 167.519 335.044 167.652 334.948 167.754C334.425 168.291 333.813 168.74 333.136 169.083C333.024 169.143 332.894 169.165 332.768 169.145C332.642 169.125 332.526 169.065 332.439 168.974L331.693 168.192L334.48 166.532Z" fill="#BA68C8"></path><path d="M337.279 161.514L329.575 155.53C328.994 155.112 328.291 154.881 327.567 154.872C326.842 154.862 326.133 155.074 325.541 155.477L321.008 158.803C320.749 158.969 320.535 159.193 320.386 159.457C320.237 159.72 320.156 160.015 320.152 160.315C320.147 160.615 320.219 160.912 320.36 161.179C320.502 161.447 320.708 161.677 320.963 161.85L328.667 167.834C329.248 168.252 329.951 168.483 330.675 168.492C331.4 168.502 332.109 168.29 332.701 167.887L337.234 164.561C337.493 164.395 337.707 164.171 337.856 163.907C338.006 163.644 338.086 163.349 338.09 163.049C338.095 162.748 338.023 162.452 337.882 162.184C337.741 161.917 337.534 161.687 337.279 161.514V161.514Z" fill="#37474F"></path><path d="M334.923 162.503C334.576 162.251 334.154 162.111 333.719 162.106C333.283 162.1 332.858 162.228 332.503 162.471C332.347 162.571 332.219 162.705 332.13 162.863C332.04 163.021 331.992 163.198 331.99 163.378C331.988 163.558 332.031 163.736 332.117 163.896C332.202 164.056 332.327 164.193 332.48 164.296C332.827 164.547 333.248 164.685 333.681 164.691C334.115 164.696 334.539 164.569 334.893 164.327C335.048 164.228 335.175 164.093 335.265 163.936C335.354 163.778 335.402 163.602 335.405 163.423C335.408 163.243 335.366 163.066 335.282 162.906C335.198 162.745 335.075 162.607 334.923 162.503V162.503Z" fill="#BA68C8"></path><path d="M331.623 164.925C331.275 164.673 330.853 164.534 330.418 164.528C329.983 164.522 329.557 164.65 329.203 164.893C329.047 164.993 328.919 165.127 328.829 165.285C328.74 165.443 328.692 165.62 328.69 165.8C328.688 165.98 328.731 166.158 328.816 166.318C328.902 166.478 329.026 166.616 329.18 166.719C329.527 166.969 329.947 167.107 330.381 167.113C330.815 167.119 331.239 166.991 331.593 166.749C331.749 166.651 331.877 166.517 331.967 166.359C332.057 166.201 332.106 166.025 332.109 165.845C332.112 165.665 332.069 165.487 331.984 165.327C331.9 165.167 331.776 165.029 331.623 164.925V164.925Z" fill="#BA68C8"></path><path d="M306.992 157.016C307.06 157.756 308.529 160.822 309.668 162.316C310.641 163.59 309.751 164.921 308.225 164.332C306.698 163.743 306.3 162.706 306.016 163.163C305.732 163.62 306.262 166.09 306.938 168.222C307.551 170.152 307.662 173.904 302.929 172.817C298.195 171.729 296.986 166.552 296.519 163.745C296.051 160.938 297.117 156.335 298.424 154.431L306.992 157.016Z" fill="#455A64"></path><path d="M306.932 154.767C307.986 155.287 307.451 156.872 306.318 157.672C305.632 158.105 304.861 158.397 304.053 158.532C303.246 158.666 302.418 158.639 301.621 158.454C299.465 157.998 297.689 156.406 297.255 154.655C296.765 152.66 298.307 152.1 298.307 152.1L306.932 154.767Z" fill="#BA68C8"></path><path d="M330.509 135.024C327.522 133.686 317.922 132.176 314.251 131.906C310.581 131.636 306.729 132.101 304.987 133.224C303.535 134.159 299.59 140.347 298.299 152.106C298.187 153.108 298.453 154.565 299.135 155.283C300.87 157.116 302.904 157.45 304.874 156.756C305.803 156.383 306.54 155.67 306.924 154.773C307.792 151.937 309.693 144.831 311.276 143.229C313.903 142.395 318.564 144.362 321.189 145.38C321.189 145.38 326.302 149.115 331.464 144.675C336.625 140.235 332.828 135.18 330.509 135.024Z" fill="#F0F0F0"></path><path d="M330.509 135.024C330.968 135.095 331.403 135.27 331.778 135.534C332.154 135.799 332.459 136.146 332.668 136.546C334.057 139.435 332.501 143 328.212 145.197C325.405 146.636 323.562 146.503 321.197 145.374C322.764 148.065 326.532 149.17 330.266 147.256C334.558 145.063 336.917 140.058 334.989 136.558C334.536 135.847 333.844 135.307 333.029 135.028C332.214 134.749 331.325 134.748 330.509 135.024V135.024Z" fill="#BA68C8"></path></svg>