<svg xmlns="http://www.w3.org/2000/svg" width="16" height="17" viewBox="0 0 16 17" fill="none"><g opacity="0.5"><path d="M15.4898 3.68909C15.494 4.42375 15.2799 5.14306 14.8748 5.75592C14.4696 6.36879 13.8917 6.84757 13.2141 7.13159C12.5366 7.41561 11.79 7.49209 11.0689 7.35132C10.3479 7.21054 9.68491 6.85885 9.16395 6.34083C8.64299 5.82282 8.28752 5.16184 8.14266 4.4416C7.9978 3.72136 8.07005 2.97427 8.35023 2.29513C8.63041 1.61599 9.10594 1.03534 9.7165 0.626746C10.3271 0.218149 11.0451 1.17256e-05 11.7798 4.73253e-10C12.7601 -1.56455e-05 13.7006 0.388008 14.3958 1.07925C15.091 1.77049 15.4843 2.70877 15.4898 3.68909Z" fill="#FAFAFA"></path><path d="M4.44356 13.7925C4.4477 14.2337 4.32039 14.6661 4.07786 15.0347C3.83532 15.4033 3.48853 15.6913 3.0817 15.8621C2.67487 16.0328 2.22641 16.0786 1.79348 15.9935C1.36054 15.9084 0.96276 15.6964 0.650775 15.3844C0.338791 15.0724 0.126744 14.6746 0.0416836 14.2417C-0.0433767 13.8088 0.00237853 13.3603 0.173135 12.9535C0.343892 12.5467 0.631909 12.1999 1.00048 11.9573C1.36905 11.7148 1.80152 11.5875 2.24272 11.5916C2.53571 11.5766 2.82859 11.6232 3.10243 11.7285C3.37627 11.8337 3.62497 11.9953 3.83242 12.2028C4.03987 12.4102 4.20145 12.6589 4.30673 12.9328C4.41201 13.2066 4.45861 13.4995 4.44356 13.7925Z" fill="#FAFAFA"></path></g></svg>