<svg xmlns="http://www.w3.org/2000/svg" width="233" height="1255" viewBox="0 0 233 1255" fill="none"><circle cx="30" cy="30" r="29.5" stroke="#27DCBE" stroke-opacity="0.99"></circle><circle cx="30" cy="30" r="21" fill="#27DCBE" fill-opacity="0.99"></circle><path d="M115.49 24.78V33H112.07V11.82H119.27C121.71 11.82 123.54 12.4 124.76 13.56C126 14.72 126.62 16.31 126.62 18.33C126.62 20.33 125.99 21.91 124.73 23.07C123.47 24.21 121.65 24.78 119.27 24.78H115.49ZM118.91 21.99C121.73 21.99 123.14 20.77 123.14 18.33C123.14 17.13 122.8 16.22 122.12 15.6C121.46 14.96 120.39 14.64 118.91 14.64H115.49V21.99H118.91ZM146.449 11.82V33H142.999V23.49H133.039V33H129.619V11.82H133.039V20.7H142.999V11.82H146.449ZM163.225 28.41H154.285L152.665 33H149.005L156.805 12.15H160.735L168.505 33H164.845L163.225 28.41ZM162.265 25.77L158.755 15.87L155.245 25.77H162.265ZM184.965 27.36C184.965 28.4 184.715 29.37 184.215 30.27C183.715 31.15 182.955 31.86 181.935 32.4C180.915 32.94 179.665 33.21 178.185 33.21C176.745 33.21 175.455 32.96 174.315 32.46C173.175 31.94 172.265 31.22 171.585 30.3C170.905 29.38 170.515 28.32 170.415 27.12H174.075C174.175 28.04 174.565 28.83 175.245 29.49C175.945 30.15 176.875 30.48 178.035 30.48C179.075 30.48 179.875 30.2 180.435 29.64C181.015 29.08 181.305 28.36 181.305 27.48C181.305 26.72 181.095 26.1 180.675 25.62C180.255 25.12 179.735 24.73 179.115 24.45C178.495 24.17 177.645 23.85 176.565 23.49C175.245 23.07 174.165 22.65 173.325 22.23C172.505 21.81 171.805 21.2 171.225 20.4C170.645 19.6 170.355 18.55 170.355 17.25C170.355 16.11 170.635 15.11 171.195 14.25C171.755 13.39 172.555 12.73 173.595 12.27C174.635 11.79 175.835 11.55 177.195 11.55C179.355 11.55 181.065 12.07 182.325 13.11C183.605 14.15 184.335 15.51 184.515 17.19H180.825C180.685 16.39 180.305 15.71 179.685 15.15C179.085 14.57 178.255 14.28 177.195 14.28C176.235 14.28 175.465 14.53 174.885 15.03C174.305 15.51 174.015 16.21 174.015 17.13C174.015 17.85 174.215 18.45 174.615 18.93C175.015 19.39 175.515 19.76 176.115 20.04C176.735 20.3 177.575 20.61 178.635 20.97C179.975 21.39 181.065 21.82 181.905 22.26C182.765 22.68 183.485 23.3 184.065 24.12C184.665 24.94 184.965 26.02 184.965 27.36ZM191.808 14.58V21H199.608V23.64H191.808V30.21H200.508V33H188.388V11.82H200.508V14.58H191.808ZM111.56 67.26C111.56 70.64 112.16 73.29 113.36 75.21C114.56 77.11 116.56 78.06 119.36 78.06C122.16 78.06 124.16 77.1 125.36 75.18C126.56 73.26 127.16 70.62 127.16 67.26C127.16 63.92 126.56 61.3 125.36 59.4C124.16 57.48 122.16 56.52 119.36 56.52C116.56 56.52 114.56 57.47 113.36 59.37C112.16 61.27 111.56 63.9 111.56 67.26ZM123.74 67.26C123.74 69.7 123.44 71.57 122.84 72.87C122.24 74.17 121.08 74.82 119.36 74.82C117.62 74.82 116.45 74.17 115.85 72.87C115.25 71.57 114.95 69.7 114.95 67.26C114.95 64.84 115.25 62.99 115.85 61.71C116.45 60.43 117.62 59.79 119.36 59.79C121.08 59.79 122.24 60.44 122.84 61.74C123.44 63.02 123.74 64.86 123.74 67.26ZM129.081 60.03V56.82H135.861V78H132.261V60.03H129.081Z" fill="white"></path><circle cx="30" cy="689" r="29.5" stroke="#27DCBE" stroke-opacity="0.99"></circle><circle cx="30" cy="689" r="21" fill="#27DCBE" fill-opacity="0.99"></circle><path d="M115.49 683.78V692H112.07V670.82H119.27C121.71 670.82 123.54 671.4 124.76 672.56C126 673.72 126.62 675.31 126.62 677.33C126.62 679.33 125.99 680.91 124.73 682.07C123.47 683.21 121.65 683.78 119.27 683.78H115.49ZM118.91 680.99C121.73 680.99 123.14 679.77 123.14 677.33C123.14 676.13 122.8 675.22 122.12 674.6C121.46 673.96 120.39 673.64 118.91 673.64H115.49V680.99H118.91ZM146.449 670.82V692H142.999V682.49H133.039V692H129.619V670.82H133.039V679.7H142.999V670.82H146.449ZM163.225 687.41H154.285L152.665 692H149.005L156.805 671.15H160.735L168.505 692H164.845L163.225 687.41ZM162.265 684.77L158.755 674.87L155.245 684.77H162.265ZM184.965 686.36C184.965 687.4 184.715 688.37 184.215 689.27C183.715 690.15 182.955 690.86 181.935 691.4C180.915 691.94 179.665 692.21 178.185 692.21C176.745 692.21 175.455 691.96 174.315 691.46C173.175 690.94 172.265 690.22 171.585 689.3C170.905 688.38 170.515 687.32 170.415 686.12H174.075C174.175 687.04 174.565 687.83 175.245 688.49C175.945 689.15 176.875 689.48 178.035 689.48C179.075 689.48 179.875 689.2 180.435 688.64C181.015 688.08 181.305 687.36 181.305 686.48C181.305 685.72 181.095 685.1 180.675 684.62C180.255 684.12 179.735 683.73 179.115 683.45C178.495 683.17 177.645 682.85 176.565 682.49C175.245 682.07 174.165 681.65 173.325 681.23C172.505 680.81 171.805 680.2 171.225 679.4C170.645 678.6 170.355 677.55 170.355 676.25C170.355 675.11 170.635 674.11 171.195 673.25C171.755 672.39 172.555 671.73 173.595 671.27C174.635 670.79 175.835 670.55 177.195 670.55C179.355 670.55 181.065 671.07 182.325 672.11C183.605 673.15 184.335 674.51 184.515 676.19H180.825C180.685 675.39 180.305 674.71 179.685 674.15C179.085 673.57 178.255 673.28 177.195 673.28C176.235 673.28 175.465 673.53 174.885 674.03C174.305 674.51 174.015 675.21 174.015 676.13C174.015 676.85 174.215 677.45 174.615 677.93C175.015 678.39 175.515 678.76 176.115 679.04C176.735 679.3 177.575 679.61 178.635 679.97C179.975 680.39 181.065 680.82 181.905 681.26C182.765 681.68 183.485 682.3 184.065 683.12C184.665 683.94 184.965 685.02 184.965 686.36ZM191.808 673.58V680H199.608V682.64H191.808V689.21H200.508V692H188.388V670.82H200.508V673.58H191.808ZM111.56 726.26C111.56 729.64 112.16 732.29 113.36 734.21C114.56 736.11 116.56 737.06 119.36 737.06C122.16 737.06 124.16 736.1 125.36 734.18C126.56 732.26 127.16 729.62 127.16 726.26C127.16 722.92 126.56 720.3 125.36 718.4C124.16 716.48 122.16 715.52 119.36 715.52C116.56 715.52 114.56 716.47 113.36 718.37C112.16 720.27 111.56 722.9 111.56 726.26ZM123.74 726.26C123.74 728.7 123.44 730.57 122.84 731.87C122.24 733.17 121.08 733.82 119.36 733.82C117.62 733.82 116.45 733.17 115.85 731.87C115.25 730.57 114.95 728.7 114.95 726.26C114.95 723.84 115.25 721.99 115.85 720.71C116.45 719.43 117.62 718.79 119.36 718.79C121.08 718.79 122.24 719.44 122.84 720.74C123.44 722.02 123.74 723.86 123.74 726.26ZM129.891 734.33C133.131 732.11 135.721 729.94 137.661 727.82C139.621 725.68 140.601 723.7 140.601 721.88C140.601 720.8 140.331 719.94 139.791 719.3C139.271 718.66 138.421 718.34 137.241 718.34C136.021 718.34 135.101 718.74 134.481 719.54C133.861 720.32 133.511 721.44 133.431 722.9H130.101C130.241 720.48 130.981 718.63 132.321 717.35C133.681 716.07 135.411 715.43 137.511 715.43C139.571 715.43 141.181 715.98 142.341 717.08C143.521 718.16 144.111 719.66 144.111 721.58C144.111 723.12 143.631 724.68 142.671 726.26C141.731 727.84 140.531 729.3 139.071 730.64C137.611 731.96 136.101 733.1 134.541 734.06H144.591V736.85H129.891V734.33Z" fill="white"></path><circle cx="30" cy="1021" r="29.5" stroke="#27DCBE" stroke-opacity="0.99"></circle><circle cx="30" cy="1021" r="21" fill="#27DCBE" fill-opacity="0.99"></circle><path d="M115.49 1015.78V1024H112.07V1002.82H119.27C121.71 1002.82 123.54 1003.4 124.76 1004.56C126 1005.72 126.62 1007.31 126.62 1009.33C126.62 1011.33 125.99 1012.91 124.73 1014.07C123.47 1015.21 121.65 1015.78 119.27 1015.78H115.49ZM118.91 1012.99C121.73 1012.99 123.14 1011.77 123.14 1009.33C123.14 1008.13 122.8 1007.22 122.12 1006.6C121.46 1005.96 120.39 1005.64 118.91 1005.64H115.49V1012.99H118.91ZM146.449 1002.82V1024H142.999V1014.49H133.039V1024H129.619V1002.82H133.039V1011.7H142.999V1002.82H146.449ZM163.225 1019.41H154.285L152.665 1024H149.005L156.805 1003.15H160.735L168.505 1024H164.845L163.225 1019.41ZM162.265 1016.77L158.755 1006.87L155.245 1016.77H162.265ZM184.965 1018.36C184.965 1019.4 184.715 1020.37 184.215 1021.27C183.715 1022.15 182.955 1022.86 181.935 1023.4C180.915 1023.94 179.665 1024.21 178.185 1024.21C176.745 1024.21 175.455 1023.96 174.315 1023.46C173.175 1022.94 172.265 1022.22 171.585 1021.3C170.905 1020.38 170.515 1019.32 170.415 1018.12H174.075C174.175 1019.04 174.565 1019.83 175.245 1020.49C175.945 1021.15 176.875 1021.48 178.035 1021.48C179.075 1021.48 179.875 1021.2 180.435 1020.64C181.015 1020.08 181.305 1019.36 181.305 1018.48C181.305 1017.72 181.095 1017.1 180.675 1016.62C180.255 1016.12 179.735 1015.73 179.115 1015.45C178.495 1015.17 177.645 1014.85 176.565 1014.49C175.245 1014.07 174.165 1013.65 173.325 1013.23C172.505 1012.81 171.805 1012.2 171.225 1011.4C170.645 1010.6 170.355 1009.55 170.355 1008.25C170.355 1007.11 170.635 1006.11 171.195 1005.25C171.755 1004.39 172.555 1003.73 173.595 1003.27C174.635 1002.79 175.835 1002.55 177.195 1002.55C179.355 1002.55 181.065 1003.07 182.325 1004.11C183.605 1005.15 184.335 1006.51 184.515 1008.19H180.825C180.685 1007.39 180.305 1006.71 179.685 1006.15C179.085 1005.57 178.255 1005.28 177.195 1005.28C176.235 1005.28 175.465 1005.53 174.885 1006.03C174.305 1006.51 174.015 1007.21 174.015 1008.13C174.015 1008.85 174.215 1009.45 174.615 1009.93C175.015 1010.39 175.515 1010.76 176.115 1011.04C176.735 1011.3 177.575 1011.61 178.635 1011.97C179.975 1012.39 181.065 1012.82 181.905 1013.26C182.765 1013.68 183.485 1014.3 184.065 1015.12C184.665 1015.94 184.965 1017.02 184.965 1018.36ZM191.808 1005.58V1012H199.608V1014.64H191.808V1021.21H200.508V1024H188.388V1002.82H200.508V1005.58H191.808ZM111.56 1058.26C111.56 1061.64 112.16 1064.29 113.36 1066.21C114.56 1068.11 116.56 1069.06 119.36 1069.06C122.16 1069.06 124.16 1068.1 125.36 1066.18C126.56 1064.26 127.16 1061.62 127.16 1058.26C127.16 1054.92 126.56 1052.3 125.36 1050.4C124.16 1048.48 122.16 1047.52 119.36 1047.52C116.56 1047.52 114.56 1048.47 113.36 1050.37C112.16 1052.27 111.56 1054.9 111.56 1058.26ZM123.74 1058.26C123.74 1060.7 123.44 1062.57 122.84 1063.87C122.24 1065.17 121.08 1065.82 119.36 1065.82C117.62 1065.82 116.45 1065.17 115.85 1063.87C115.25 1062.57 114.95 1060.7 114.95 1058.26C114.95 1055.84 115.25 1053.99 115.85 1052.71C116.45 1051.43 117.62 1050.79 119.36 1050.79C121.08 1050.79 122.24 1051.44 122.84 1052.74C123.44 1054.02 123.74 1055.86 123.74 1058.26ZM137.691 1047.16C139.091 1047.16 140.291 1047.41 141.291 1047.91C142.291 1048.39 143.041 1049.06 143.541 1049.92C144.061 1050.78 144.321 1051.74 144.321 1052.8C144.321 1054.14 143.941 1055.26 143.181 1056.16C142.441 1057.04 141.391 1057.57 140.031 1057.75V1057.9C141.491 1058.32 142.631 1058.95 143.451 1059.79C144.291 1060.61 144.711 1061.75 144.711 1063.21C144.711 1064.99 144.121 1066.44 142.941 1067.56C141.761 1068.66 140.071 1069.21 137.871 1069.21C135.611 1069.21 133.791 1068.64 132.411 1067.5C131.031 1066.34 130.241 1064.63 130.041 1062.37H133.431C133.551 1063.57 133.981 1064.53 134.721 1065.25C135.461 1065.95 136.461 1066.3 137.721 1066.3C138.901 1066.3 139.801 1065.99 140.421 1065.37C141.061 1064.75 141.381 1063.95 141.381 1062.97C141.381 1061.79 140.921 1060.89 140.001 1060.27C139.101 1059.65 137.791 1059.34 136.071 1059.34H135.261V1056.52H136.071C139.331 1056.56 140.961 1055.45 140.961 1053.19C140.961 1052.21 140.661 1051.44 140.061 1050.88C139.461 1050.32 138.641 1050.04 137.601 1050.04C136.561 1050.04 135.691 1050.36 134.991 1051C134.291 1051.62 133.871 1052.53 133.731 1053.73H130.371C130.511 1051.65 131.211 1050.04 132.471 1048.9C133.731 1047.74 135.471 1047.16 137.691 1047.16Z" fill="white"></path><circle cx="30" cy="1195" r="29.5" stroke="#27DCBE" stroke-opacity="0.99"></circle><circle cx="30" cy="1195" r="21" fill="#27DCBE" fill-opacity="0.99"></circle><path d="M115.49 1189.78V1198H112.07V1176.82H119.27C121.71 1176.82 123.54 1177.4 124.76 1178.56C126 1179.72 126.62 1181.31 126.62 1183.33C126.62 1185.33 125.99 1186.91 124.73 1188.07C123.47 1189.21 121.65 1189.78 119.27 1189.78H115.49ZM118.91 1186.99C121.73 1186.99 123.14 1185.77 123.14 1183.33C123.14 1182.13 122.8 1181.22 122.12 1180.6C121.46 1179.96 120.39 1179.64 118.91 1179.64H115.49V1186.99H118.91ZM146.449 1176.82V1198H142.999V1188.49H133.039V1198H129.619V1176.82H133.039V1185.7H142.999V1176.82H146.449ZM163.225 1193.41H154.285L152.665 1198H149.005L156.805 1177.15H160.735L168.505 1198H164.845L163.225 1193.41ZM162.265 1190.77L158.755 1180.87L155.245 1190.77H162.265ZM184.965 1192.36C184.965 1193.4 184.715 1194.37 184.215 1195.27C183.715 1196.15 182.955 1196.86 181.935 1197.4C180.915 1197.94 179.665 1198.21 178.185 1198.21C176.745 1198.21 175.455 1197.96 174.315 1197.46C173.175 1196.94 172.265 1196.22 171.585 1195.3C170.905 1194.38 170.515 1193.32 170.415 1192.12H174.075C174.175 1193.04 174.565 1193.83 175.245 1194.49C175.945 1195.15 176.875 1195.48 178.035 1195.48C179.075 1195.48 179.875 1195.2 180.435 1194.64C181.015 1194.08 181.305 1193.36 181.305 1192.48C181.305 1191.72 181.095 1191.1 180.675 1190.62C180.255 1190.12 179.735 1189.73 179.115 1189.45C178.495 1189.17 177.645 1188.85 176.565 1188.49C175.245 1188.07 174.165 1187.65 173.325 1187.23C172.505 1186.81 171.805 1186.2 171.225 1185.4C170.645 1184.6 170.355 1183.55 170.355 1182.25C170.355 1181.11 170.635 1180.11 171.195 1179.25C171.755 1178.39 172.555 1177.73 173.595 1177.27C174.635 1176.79 175.835 1176.55 177.195 1176.55C179.355 1176.55 181.065 1177.07 182.325 1178.11C183.605 1179.15 184.335 1180.51 184.515 1182.19H180.825C180.685 1181.39 180.305 1180.71 179.685 1180.15C179.085 1179.57 178.255 1179.28 177.195 1179.28C176.235 1179.28 175.465 1179.53 174.885 1180.03C174.305 1180.51 174.015 1181.21 174.015 1182.13C174.015 1182.85 174.215 1183.45 174.615 1183.93C175.015 1184.39 175.515 1184.76 176.115 1185.04C176.735 1185.3 177.575 1185.61 178.635 1185.97C179.975 1186.39 181.065 1186.82 181.905 1187.26C182.765 1187.68 183.485 1188.3 184.065 1189.12C184.665 1189.94 184.965 1191.02 184.965 1192.36ZM191.808 1179.58V1186H199.608V1188.64H191.808V1195.21H200.508V1198H188.388V1176.82H200.508V1179.58H191.808ZM111.56 1232.26C111.56 1235.64 112.16 1238.29 113.36 1240.21C114.56 1242.11 116.56 1243.06 119.36 1243.06C122.16 1243.06 124.16 1242.1 125.36 1240.18C126.56 1238.26 127.16 1235.62 127.16 1232.26C127.16 1228.92 126.56 1226.3 125.36 1224.4C124.16 1222.48 122.16 1221.52 119.36 1221.52C116.56 1221.52 114.56 1222.47 113.36 1224.37C112.16 1226.27 111.56 1228.9 111.56 1232.26ZM123.74 1232.26C123.74 1234.7 123.44 1236.57 122.84 1237.87C122.24 1239.17 121.08 1239.82 119.36 1239.82C117.62 1239.82 116.45 1239.17 115.85 1237.87C115.25 1236.57 114.95 1234.7 114.95 1232.26C114.95 1229.84 115.25 1227.99 115.85 1226.71C116.45 1225.43 117.62 1224.79 119.36 1224.79C121.08 1224.79 122.24 1225.44 122.84 1226.74C123.44 1228.02 123.74 1229.86 123.74 1232.26ZM129.741 1238.44V1235.56L140.271 1221.64H143.931V1235.44H146.901V1238.44H143.931V1243H140.481V1238.44H129.741ZM140.721 1225.72L133.281 1235.44H140.721V1225.72Z" fill="white"></path><line x1="30.5" y1="10" x2="30.5001" y2="1198" stroke="#27DCBE" stroke-opacity="0.99"></line></svg>