<svg xmlns="http://www.w3.org/2000/svg" width="798" height="782" viewBox="0 0 798 782" fill="none"><path d="M112.283 605.983C108.568 602.793 104.853 599.604 101.295 596.232L102.854 594.417C107.465 598.629 112.229 602.814 117.07 606.909L115.511 608.724L112.283 605.983ZM130.428 620.777L131.987 618.961C136.888 622.76 142.013 626.562 147.161 630.225L145.769 632.184C140.492 628.41 135.382 624.59 130.428 620.777ZM87.658 583.103C83.172 578.557 78.7796 573.902 74.6107 569.249L76.411 567.641C80.5428 572.262 84.9137 576.867 89.3811 581.397L87.658 583.103ZM161.339 642.874L162.675 640.868C167.836 644.29 173.202 647.699 178.611 651.019L177.349 653.09C171.921 649.753 166.519 646.312 161.339 642.874ZM62.3451 554.711C58.3543 549.739 54.4912 544.655 50.8672 539.556L52.7783 538.232C56.3807 543.281 60.2252 548.349 64.1944 553.271L62.3451 554.711ZM193.752 662.697L194.88 660.67C200.269 663.751 205.726 666.829 211.431 669.804L210.375 671.862C204.706 668.918 199.113 665.849 193.706 662.752L193.752 662.697ZM40.2981 523.794C36.9421 518.42 33.7264 512.883 30.7529 507.365L32.8244 506.306C35.7765 511.774 38.9521 517.245 42.2865 522.568L40.2981 523.794ZM227.244 680.513L228.263 678.424C233.867 681.217 239.639 683.966 245.296 686.584L244.347 688.703C238.591 686.125 232.835 683.359 227.197 680.567L227.244 680.513ZM261.67 696.451L262.547 694.302C268.258 696.746 274.123 699.197 279.999 701.561L279.159 703.742C273.218 701.416 267.349 698.931 261.623 696.505L261.67 696.451ZM22.3615 490.382C19.7614 484.617 17.3387 478.72 15.1767 472.858L17.3776 472.099C19.5181 477.911 21.9192 483.757 24.4978 489.473L22.3615 490.382ZM296.835 710.626L297.607 708.45C303.449 710.628 309.412 712.815 315.366 714.901L314.613 717.093C308.668 715.11 302.615 712.877 296.77 710.665L296.835 710.626ZM9.31596 454.957C7.59875 448.878 6.08053 442.717 4.89131 436.586L7.19338 436.198C8.44495 442.256 9.8703 448.337 11.5845 454.382L9.31596 454.957ZM332.434 723.282L333.116 721.06C339.058 723.009 345.115 724.898 351.117 726.74L350.472 728.994C344.499 727.082 338.377 725.23 332.434 723.282ZM368.614 734.322L369.208 732.089C375.145 733.781 381.268 735.444 387.463 737.136L386.905 739.401C380.757 737.654 374.634 735.992 368.66 734.268L368.614 734.322ZM1.85232 417.955C1.13541 411.725 0.651691 405.412 0.450166 399.183L2.80066 399.151C3.01479 405.328 3.45841 411.575 4.16935 417.737L1.85232 417.955ZM405.155 744.002L405.66 741.723C411.734 743.218 417.907 744.671 424.007 746.061L423.554 748.354C417.468 746.912 411.276 745.442 405.202 743.948L405.155 744.002ZM0.656504 380.342C0.970405 374.114 1.63191 367.933 2.37132 361.661L4.70487 362.025C3.88221 368.131 3.31063 374.358 3.00635 380.499L0.656504 380.342ZM442.042 752.339L442.476 750.031C448.566 751.318 454.737 752.549 460.958 753.76L460.559 756.066C454.304 754.858 448.148 753.609 442.042 752.339ZM479.102 759.499L479.467 757.195C485.606 758.262 491.791 759.315 498.02 760.354L497.707 762.671C491.396 761.604 485.227 760.596 479.102 759.499ZM5.58489 343.226C6.87617 337.175 8.45636 331.089 10.2193 325.128L12.4647 325.858C10.6586 331.718 9.14675 337.8 7.86807 343.799L5.58489 343.226ZM516.339 765.55L516.636 763.25C522.796 764.156 529.002 765.008 535.277 765.854L535.018 768.186C528.724 767.323 522.498 766.445 516.339 765.55ZM553.707 770.547L553.932 768.218C560.135 768.96 566.369 769.667 572.635 770.337L572.428 772.683C566.14 772.014 559.899 771.302 553.707 770.547ZM16.2649 307.453C18.4431 301.723 20.876 295.959 23.5227 290.284L25.6739 291.311C23.0397 296.934 20.5726 302.7 18.4538 308.324L16.2649 307.453ZM591.178 774.56L591.335 772.234C597.533 772.795 603.738 773.423 610.064 773.873L609.925 776.213C603.626 775.682 597.377 775.131 591.178 774.56ZM31.9831 273.705C34.9301 268.319 38.0605 262.87 41.4724 257.694L43.548 259.035C40.2259 264.257 37.0524 269.606 34.1336 274.921L31.9831 273.705ZM628.649 777.595L628.769 775.238C634.969 775.684 641.217 776.087 647.512 776.446L647.442 778.783C641.18 778.484 634.941 778.046 628.705 777.643L628.649 777.595ZM666.244 779.696L666.299 777.378C672.508 777.663 678.753 777.906 685.035 778.106L685.017 780.457C678.731 780.336 672.474 780.083 666.244 779.696ZM51.9162 242.188C55.4886 237.277 59.2972 232.315 63.2514 227.447L65.1087 229.042C61.2013 233.856 57.4082 238.799 53.867 243.674L51.9162 242.188ZM703.846 781.077L703.848 778.744C710.135 778.939 716.325 779.02 722.619 779.094L722.651 781.424C716.329 781.42 710.07 781.344 703.873 781.195L703.846 781.077ZM77.1185 214.944L75.2613 213.349C79.3478 208.816 83.6579 204.285 88.0296 199.871L89.7934 201.574C85.496 206.053 81.217 210.547 77.1461 215.062L77.1185 214.944ZM741.46 781.428L741.357 779.068C747.623 778.961 753.861 778.798 760.072 778.581L760.209 780.938C753.992 781.213 747.752 781.416 741.488 781.546L741.46 781.428ZM778.968 780.174L778.8 777.852C785.06 777.551 791.318 777.216 797.519 776.833L797.707 779.17C791.528 779.626 785.291 780 778.996 780.292L778.968 780.174ZM103.149 188.915L101.479 187.103C105.98 182.988 110.67 178.879 115.453 174.849L117.077 176.717C112.356 180.674 107.681 184.765 103.149 188.915ZM131.469 165.105L129.908 163.166C134.718 159.443 139.671 155.78 144.825 152.069L146.213 153.986C141.291 157.613 136.291 161.33 131.515 165.051L131.469 165.105ZM161.501 143.585L160.16 141.614C165.227 138.269 170.495 134.877 175.825 131.601L177.098 133.577C171.879 136.76 166.682 140.182 161.594 143.476L161.501 143.585ZM193.016 124.096L191.824 122.064C197.123 119.013 202.576 115.969 208.089 113.007L209.249 115.075C203.846 117.91 198.392 120.954 193.109 123.987L193.016 124.096ZM225.713 106.537L224.618 104.43C230.139 101.759 235.753 98.9785 241.32 96.253L242.365 98.3804C236.873 100.981 231.253 103.693 225.807 106.428L225.713 106.537ZM259.357 90.7681L258.362 88.6203C263.969 86.1495 269.75 83.7017 275.552 81.3039L276.497 83.4721C270.789 85.7609 265.027 88.2246 259.451 90.6592L259.357 90.7681ZM293.747 76.649L292.87 74.4765C298.619 72.2537 304.526 70.0721 310.355 67.9813L311.201 70.1901C305.465 72.172 299.593 74.3514 293.841 76.5401L293.747 76.649ZM328.917 63.9886L328.121 61.7593C333.912 59.8253 339.893 57.8962 345.932 56.049L346.679 58.2986C340.634 60.0775 334.672 62.0226 328.917 63.9886ZM364.384 52.7494L363.671 50.4975C369.583 48.7615 375.634 47.0507 381.639 45.3944L382.301 47.6666C376.368 49.3526 370.351 51.0611 364.384 52.7494ZM400.333 42.9022L399.704 40.6279C405.685 39.0989 411.739 37.6109 417.865 36.1639L418.459 38.4405C412.409 39.9626 406.371 41.4324 400.388 42.9501L400.333 42.9022ZM436.721 34.3471L436.161 32.0684C442.181 30.7198 448.28 29.4288 454.459 28.1957L454.985 30.4766C448.905 31.6577 442.681 32.9681 436.721 34.3471ZM473.307 26.8767L472.831 24.5754C478.883 23.4647 484.991 22.4018 491.245 21.2438L491.706 23.5633C485.515 24.6601 479.382 25.7645 473.307 26.8767ZM510.066 20.5954L509.64 18.2737C515.804 17.2587 522.023 16.2916 528.17 15.4834L528.563 17.8073C522.334 18.5979 516.194 19.497 510.144 20.5046L510.066 20.5954ZM547.002 15.16L546.626 12.818C552.792 12.0258 558.976 11.2495 565.232 10.503L565.556 12.8312C559.414 13.5704 553.292 14.337 547.189 15.1309L547.002 15.16ZM584.357 10.778L584.067 8.44746C590.227 7.77569 596.46 7.16777 602.713 6.57574L603.002 8.90622C596.718 9.46028 590.503 10.0842 584.357 10.778ZM621.613 7.22537L621.357 4.89264C627.565 4.3892 633.792 3.90172 640.075 3.46206L640.297 5.79693C634.015 6.24795 627.787 6.72412 621.613 7.22537ZM658.967 4.60944L658.761 2.2564C664.966 1.9075 671.205 1.55643 677.5 1.25318L677.687 3.59026C671.414 3.88066 665.185 4.20829 658.998 4.57313L658.967 4.60944ZM696.406 2.75973L696.253 0.420433C699.06 0.307896 701.867 0.195378 704.678 0.116941C708.224 0.00817944 711.627 0.0286772 715.079 0.028834L715.13 2.37474L704.797 2.45845L696.406 2.75973ZM733.908 2.41493L733.857 0.0690252C740.222 0.172804 746.479 0.289253 752.628 0.418362L752.645 2.76643C746.383 2.46739 740.214 2.43675 733.939 2.37862L733.908 2.41493Z" fill="#E0E0E0"></path></svg>