<svg xmlns="http://www.w3.org/2000/svg" width="177" height="122" viewBox="0 0 177 122" fill="none"><path opacity="0.3" d="M67.7805 105.282C58.332 104.628 50.3361 101.401 44.8041 96.0091C39.2721 90.617 36.4525 83.3022 36.7016 74.9896C36.9508 66.677 40.2577 57.7401 46.2041 49.3089C52.1505 40.8777 60.4693 33.3309 70.1086 27.6228C79.7479 21.9148 90.2747 18.3019 100.358 17.241C110.441 16.1801 119.628 17.7189 126.756 21.6627C133.885 25.6065 138.635 31.7783 140.405 39.3975C142.176 47.0167 140.889 55.7413 136.705 64.4678C131.095 76.1696 120.682 87.0438 107.756 94.698C94.8304 102.352 80.4507 106.16 67.7805 105.282ZM109.548 18.1569C100.319 17.518 90.0861 19.4209 80.1424 23.6251C70.1988 27.8293 60.9914 34.1459 53.6845 41.7762C46.3777 49.4064 41.2996 58.0076 39.0924 66.492C36.8852 74.9765 37.648 82.9631 41.2845 89.4419C44.9209 95.9208 51.2675 100.601 59.5219 102.89C67.7762 105.18 77.5675 104.976 87.6575 102.304C97.7475 99.6329 107.683 94.6137 116.208 87.8816C124.733 81.1495 131.464 73.0068 135.55 64.4832C141.029 53.0534 141.368 41.7515 136.492 33.0636C131.616 24.3757 121.924 19.0136 109.548 18.1569Z" fill="white"></path><path opacity="0.2" d="M66.2482 108.483C56.125 107.782 47.5583 104.325 41.6313 98.5478C35.7044 92.7707 32.6834 84.9337 32.9504 76.0276C33.2174 67.1216 36.7603 57.5465 43.1313 48.5134C49.5022 39.4802 58.415 31.3946 68.7424 25.2791C79.0699 19.1635 90.3483 15.2927 101.151 14.156C111.954 13.0194 121.797 14.668 129.434 18.8934C137.072 23.1188 142.161 29.7312 144.058 37.8944C145.955 46.0576 144.576 55.405 140.094 64.7546C134.071 77.2867 122.913 88.929 109.069 97.127C95.2248 105.325 79.8249 109.409 66.2482 108.483ZM111.08 14.9651C101.177 14.2795 90.1956 16.3215 79.5252 20.833C68.8547 25.3445 58.9743 32.1229 51.1333 40.3108C43.2924 48.4988 37.8431 57.7287 35.4746 66.8333C33.1061 75.9379 33.9247 84.5083 37.8269 91.4607C41.7291 98.4132 48.5397 103.435 57.3974 105.892C66.2551 108.349 76.762 108.13 87.5896 105.263C98.4172 102.397 109.079 97.0105 118.227 89.7863C127.375 82.5621 134.598 73.8242 138.983 64.6776C144.849 52.415 145.206 40.2929 139.975 30.9726C134.743 21.6522 124.352 15.8951 111.08 14.9651Z" fill="white"></path><path opacity="0.1" d="M64.3772 112.382C53.4102 111.623 44.1295 107.877 37.7085 101.619C31.2875 95.3603 28.0147 86.87 28.304 77.2217C28.5932 67.5733 32.4315 57.2002 39.3335 47.4141C46.2354 37.628 55.8911 28.8684 67.0794 22.2431C78.2677 15.6178 90.4861 11.4244 102.19 10.193C113.893 8.96159 124.556 10.7476 132.83 15.3252C141.104 19.9028 146.617 27.0664 148.673 35.91C150.728 44.7536 149.234 54.8801 144.378 65.009C137.844 78.582 125.755 91.1888 110.761 100.068C95.7658 108.948 79.087 113.376 64.3772 112.382ZM112.987 10.9839C102.24 10.2399 90.3231 12.456 78.7435 17.3519C67.1639 22.2477 56.4416 29.6036 47.9326 38.4892C39.4237 47.3748 33.5101 57.3911 30.9398 67.2714C28.3694 77.1517 29.2578 86.4523 33.4925 93.9971C37.7272 101.542 45.118 106.992 54.7304 109.658C64.3428 112.324 75.7449 112.087 87.495 108.976C99.2451 105.865 110.815 100.02 120.743 92.18C130.67 84.3403 138.508 74.8579 143.267 64.9321C149.603 51.6338 149.972 38.4962 144.293 28.3936C138.615 18.291 127.352 12.046 112.968 11.025L112.987 10.9839Z" fill="white"></path><path opacity="0.1" d="M62.012 117.318C49.9943 116.486 39.8243 112.382 32.7884 105.523C25.7524 98.6647 22.1665 89.3607 22.484 78.7877C22.8016 68.2147 27.0084 56.8476 34.5724 46.1241C42.1364 35.4005 52.7179 25.8022 64.9786 18.5428C77.2394 11.2835 90.6287 6.68926 103.453 5.34115C116.278 3.99305 127.962 5.95162 137.027 10.9692C146.092 15.9867 152.132 23.8379 154.383 33.5298C156.633 43.2216 154.993 54.3189 149.67 65.4181C142.52 80.2941 129.275 94.1135 112.841 103.844C96.4068 113.574 78.1267 118.42 62.012 117.318ZM115.32 6.12065C103.522 5.30391 90.4406 7.73652 77.7293 13.1109C65.018 18.4853 53.2479 26.56 43.9073 36.314C34.5667 46.068 28.0752 57.0632 25.2537 67.9091C22.4322 78.755 23.4074 88.9646 28.0559 97.2467C32.7045 105.529 40.8176 111.512 51.3694 114.438C61.9212 117.365 74.4377 117.104 87.3362 113.689C100.235 110.274 112.936 103.858 123.833 95.2521C134.731 86.6462 143.335 76.2371 148.559 65.3411C155.543 50.7339 155.966 36.2953 149.735 25.1931C143.503 14.0909 131.126 7.2318 115.32 6.12065Z" fill="white"></path></svg>