<svg xmlns="http://www.w3.org/2000/svg" width="577" height="398" viewBox="0 0 577 398" fill="none"><path opacity="0.3" d="M219.022 343.093C188.066 340.95 161.869 330.377 143.745 312.711C125.621 295.045 116.382 271.079 117.199 243.845C118.015 216.611 128.85 187.331 148.332 159.707C167.814 132.084 195.069 107.359 226.65 88.6578C258.231 69.9567 292.72 58.1198 325.755 54.644C358.79 51.1682 388.888 56.2096 412.243 69.1307C435.598 82.0518 451.16 102.272 456.962 127.235C462.764 152.198 458.545 180.782 444.839 209.372C426.46 247.711 392.343 283.338 349.994 308.415C307.645 333.493 260.533 345.967 219.022 343.093ZM355.865 57.6447C325.628 55.5514 292.101 61.7861 259.523 75.5602C226.945 89.3344 196.779 110.029 172.84 135.028C148.9 160.027 132.263 188.207 125.032 216.004C117.8 243.802 120.3 269.968 132.214 291.195C144.127 312.421 164.921 327.755 191.964 335.256C219.008 342.757 251.087 342.089 284.145 333.336C317.203 324.583 349.755 308.139 377.684 286.083C405.614 264.026 427.667 237.348 441.054 209.423C459.006 171.976 460.116 134.947 444.14 106.483C428.164 78.0195 396.41 60.4517 355.865 57.6447Z" fill="white"></path><path opacity="0.2" d="M214.001 353.58C180.834 351.284 152.767 339.956 133.349 321.029C113.931 302.101 104.033 276.425 104.908 247.246C105.783 218.067 117.39 186.697 138.263 157.102C159.136 127.506 188.337 101.016 222.173 80.9794C256.009 60.9431 292.96 48.2611 328.354 44.5372C363.748 40.8132 395.994 46.2146 421.017 60.0582C446.039 73.9018 462.712 95.5659 468.928 122.311C475.145 149.056 470.625 179.681 455.94 210.312C436.207 251.371 399.651 289.515 354.294 316.374C308.936 343.233 258.482 356.613 214.001 353.58ZM360.884 47.1879C328.437 44.9416 292.46 51.632 257.5 66.413C222.541 81.194 190.169 103.402 164.48 130.228C138.791 157.054 120.938 187.294 113.178 217.123C105.418 246.952 108.1 275.031 120.885 297.809C133.669 320.588 155.983 337.042 185.003 345.091C214.023 353.14 248.447 352.423 283.921 343.031C319.396 333.638 354.327 315.992 384.298 292.324C414.269 268.655 437.934 240.027 452.3 210.06C471.52 169.884 472.689 130.169 455.55 99.6329C438.411 69.0967 404.364 50.2349 360.884 47.1879Z" fill="white"></path><path opacity="0.1" d="M207.871 366.355C171.941 363.867 141.534 351.595 120.497 331.09C99.4603 310.585 88.7377 282.769 89.6853 251.158C90.633 219.547 103.208 185.562 125.821 153.5C148.434 121.438 180.069 92.7389 216.725 71.0325C253.381 49.3261 293.412 35.5871 331.756 31.5528C370.1 27.5184 405.035 33.3699 432.142 48.3674C459.25 63.3649 477.313 86.8348 484.048 115.809C490.782 144.783 485.885 177.961 469.977 211.146C448.569 255.615 408.964 296.918 359.837 326.01C310.71 355.101 256.065 369.608 207.871 366.355ZM367.132 34.1442C331.921 31.7066 292.878 38.9669 254.94 55.0073C217.001 71.0476 181.872 95.1475 153.994 124.259C126.117 153.371 106.742 186.187 98.321 218.558C89.8999 250.929 92.8103 281.4 106.684 306.119C120.558 330.838 144.773 348.694 176.266 357.429C207.759 366.164 245.115 365.386 283.612 355.193C322.109 345.001 360.016 325.851 392.541 300.166C425.066 274.481 450.747 243.414 466.337 210.894C487.094 167.325 488.303 124.282 469.699 91.1831C451.096 58.0841 414.193 37.6238 367.067 34.2787L367.132 34.1442Z" fill="white"></path><path opacity="0.1" d="M200.122 382.526C160.748 379.8 127.429 366.352 104.377 343.882C81.3251 321.411 69.5765 290.929 70.6169 256.288C71.6573 221.648 85.4399 184.407 110.222 149.273C135.004 114.14 169.672 82.6928 209.841 58.9092C250.011 35.1255 293.878 20.0735 335.895 15.6568C377.912 11.24 416.191 17.6568 445.892 34.0958C475.593 50.5347 495.381 76.2573 502.754 108.011C510.127 139.764 504.753 176.122 487.313 212.486C463.889 261.224 420.494 306.5 366.651 338.379C312.809 370.258 252.918 386.135 200.122 382.526ZM374.773 18.2106C336.121 15.5347 293.262 23.5047 251.616 41.1126C209.97 58.7206 171.408 85.1757 140.806 117.133C110.203 149.089 88.9353 185.113 79.6912 220.647C70.447 256.182 73.642 289.631 88.872 316.766C104.102 343.9 130.683 363.501 165.254 373.09C199.824 382.679 240.832 381.825 283.091 370.636C325.35 359.447 366.962 338.426 402.665 310.231C438.369 282.035 466.56 247.932 483.673 212.234C506.556 164.376 507.942 117.071 487.526 80.6974C467.11 44.3234 426.56 21.8511 374.773 18.2106Z" fill="white"></path></svg>