<svg xmlns="http://www.w3.org/2000/svg" width="578" height="350" viewBox="0 0 578 350" fill="none"><path opacity="0.5" d="M393.173 287.13C391.263 287.004 389.634 286.365 388.491 285.294C387.348 284.222 386.743 282.767 386.753 281.111C386.762 279.455 387.386 277.673 388.545 275.991C389.704 274.309 391.345 272.802 393.263 271.66C395.18 270.519 397.287 269.794 399.317 269.578C401.347 269.362 403.208 269.664 404.666 270.446C406.124 271.228 407.113 272.455 407.508 273.972C407.902 275.489 407.685 277.227 406.883 278.967C405.809 281.301 403.76 283.472 401.189 285.003C398.618 286.533 395.735 287.299 393.173 287.13ZM400.95 270.246C399.195 270.13 397.261 270.492 395.392 271.284C393.523 272.076 391.804 273.264 390.452 274.697C389.1 276.13 388.175 277.745 387.795 279.336C387.415 280.926 387.597 282.423 388.317 283.635C389.037 284.848 390.264 285.722 391.842 286.147C393.42 286.573 395.278 286.53 397.181 286.025C399.085 285.52 400.948 284.575 402.536 283.309C404.124 282.044 405.364 280.515 406.101 278.916C407.085 276.772 407.096 274.656 406.13 273.03C405.165 271.405 403.302 270.404 400.95 270.246Z" fill="#BA68C8"></path><path d="M399.943 278.51C399.718 278.999 399.338 279.467 398.852 279.855C398.366 280.242 397.796 280.531 397.213 280.686C396.63 280.841 396.062 280.854 395.579 280.724C395.096 280.593 394.72 280.326 394.5 279.955C394.279 279.583 394.224 279.125 394.34 278.638C394.456 278.151 394.739 277.657 395.153 277.219C395.567 276.78 396.093 276.416 396.665 276.174C397.237 275.931 397.829 275.821 398.367 275.856C399.087 275.904 399.658 276.21 399.954 276.708C400.249 277.205 400.246 277.854 399.943 278.51Z" fill="white"></path><path opacity="0.5" d="M336.629 120.873C333.619 120.675 331.051 119.667 329.25 117.979C327.449 116.29 326.497 113.996 326.512 111.386C326.528 108.776 327.512 105.969 329.339 103.318C331.166 100.667 333.754 98.2921 336.776 96.4939C339.798 94.6957 343.119 93.5548 346.317 93.2155C349.516 92.8762 352.449 93.3537 354.745 94.5877C357.041 95.8218 358.598 97.7568 359.218 100.148C359.837 102.539 359.493 105.279 358.227 108.022C356.529 111.696 353.301 115.112 349.252 117.521C345.203 119.93 340.663 121.136 336.629 120.873ZM349.068 93.869C346.21 93.683 343.062 94.2732 340.022 95.5651C336.982 96.8569 334.186 98.7922 331.989 101.126C329.791 103.46 328.291 106.087 327.678 108.676C327.064 111.264 327.366 113.697 328.544 115.667C329.722 117.637 331.723 119.054 334.294 119.741C336.866 120.427 339.892 120.351 342.99 119.523C346.087 118.694 349.117 117.15 351.696 115.087C354.275 113.023 356.286 110.532 357.475 107.929C359.079 104.44 359.097 100.995 357.524 98.3506C355.951 95.7063 352.916 94.0792 349.087 93.827L349.068 93.869Z" fill="#BA68C8"></path><path d="M347.38 107.264C347.019 108.048 346.411 108.797 345.632 109.418C344.854 110.038 343.94 110.501 343.007 110.749C342.074 110.997 341.163 111.018 340.389 110.809C339.616 110.601 339.014 110.172 338.661 109.578C338.308 108.983 338.219 108.249 338.405 107.469C338.592 106.689 339.045 105.898 339.708 105.195C340.371 104.493 341.214 103.91 342.13 103.522C343.046 103.134 343.994 102.956 344.855 103.013C345.427 103.049 345.947 103.188 346.384 103.422C346.821 103.655 347.167 103.979 347.402 104.374C347.636 104.769 347.755 105.228 347.751 105.723C347.748 106.219 347.622 106.743 347.38 107.264Z" fill="white"></path><path opacity="0.5" d="M484.707 74.9503C482.797 74.8245 481.168 74.1855 480.025 73.1141C478.882 72.0428 478.277 70.5871 478.287 68.9313C478.296 67.2754 478.92 65.4937 480.079 63.8115C481.238 62.1293 482.88 60.6221 484.797 59.4806C486.715 58.339 488.821 57.6144 490.851 57.3983C492.881 57.1822 494.742 57.4843 496.2 58.2664C497.658 59.0486 498.647 60.2756 499.042 61.7924C499.436 63.3092 499.219 65.0476 498.418 66.7878C497.34 69.1203 495.292 71.2895 492.721 72.8197C490.151 74.3499 487.269 75.1161 484.707 74.9503ZM492.485 58.0664C490.729 57.9508 488.795 58.312 486.926 59.1043C485.058 59.8966 483.338 61.0845 481.986 62.5177C480.634 63.9509 479.709 65.565 479.329 67.156C478.949 68.7469 479.131 70.2433 479.851 71.4558C480.572 72.6683 481.798 73.5425 483.376 73.9678C484.954 74.3932 486.812 74.3506 488.716 73.8454C490.619 73.3402 492.483 72.3952 494.07 71.1298C495.658 69.8643 496.898 68.3354 497.635 66.7363C498.619 64.5925 498.63 62.4759 497.664 60.8507C496.699 59.2254 494.836 58.2241 492.485 58.0664Z" fill="#BA68C8"></path><path d="M491.489 66.3313C491.265 66.8235 490.885 67.2946 490.398 67.6851C489.91 68.0755 489.338 68.3677 488.752 68.5246C488.166 68.6815 487.594 68.6961 487.108 68.5665C486.621 68.4369 486.243 68.1689 486.02 67.7965C485.797 67.4242 485.74 66.9641 485.856 66.4747C485.972 65.9854 486.256 65.4886 486.672 65.0474C487.087 64.6062 487.616 64.2405 488.191 63.9965C488.766 63.7525 489.361 63.6412 489.901 63.6767C490.259 63.6989 490.585 63.7853 490.859 63.9308C491.133 64.0764 491.35 64.2783 491.497 64.5249C491.645 64.7716 491.72 65.0581 491.719 65.3681C491.717 65.6781 491.639 66.0054 491.489 66.3313Z" fill="white"></path><path opacity="0.5" d="M100.744 113.219C98.8342 113.093 97.2047 112.454 96.0618 111.383C94.919 110.312 94.3141 108.856 94.3237 107.2C94.3333 105.544 94.957 103.763 96.1158 102.08C97.2746 100.398 98.9165 98.8911 100.834 97.7495C102.751 96.608 104.858 95.8833 106.888 95.6672C108.918 95.4511 110.779 95.7532 112.237 96.5354C113.695 97.3175 114.684 98.5446 115.079 100.061C115.473 101.578 115.256 103.317 114.455 105.057C113.38 107.39 111.331 109.561 108.76 111.092C106.189 112.623 103.306 113.388 100.744 113.219ZM108.521 96.3353C106.766 96.2197 104.832 96.5809 102.963 97.3733C101.094 98.1656 99.3753 99.3534 98.0231 100.787C96.6708 102.22 95.7462 103.834 95.3662 105.425C94.9862 107.016 95.1678 108.512 95.8881 109.725C96.6084 110.937 97.8351 111.811 99.4129 112.237C100.991 112.662 102.849 112.619 104.752 112.114C106.656 111.609 108.519 110.664 110.107 109.399C111.695 108.133 112.935 106.604 113.672 105.005C114.656 102.861 114.667 100.745 113.701 99.1196C112.736 97.4943 110.873 96.4931 108.521 96.3353Z" fill="#BA68C8"></path><path d="M107.467 104.596C107.245 105.089 106.866 105.561 106.379 105.952C105.892 106.343 105.319 106.635 104.733 106.791C104.148 106.948 103.575 106.961 103.09 106.83C102.605 106.698 102.229 106.428 102.009 106.053C101.79 105.679 101.738 105.217 101.859 104.727C101.98 104.237 102.269 103.741 102.69 103.302C103.11 102.863 103.643 102.502 104.22 102.264C104.796 102.026 105.391 101.923 105.927 101.966C106.632 102.021 107.189 102.328 107.477 102.82C107.766 103.312 107.762 103.95 107.467 104.596Z" fill="white"></path><path d="M537.605 57.5165C537.456 57.3277 537.396 57.0835 537.433 56.8147C537.47 56.5459 537.602 56.2647 537.813 56.0065C538.024 55.7484 538.303 55.5249 538.616 55.3645C538.93 55.204 539.263 55.1137 539.573 55.105C539.883 55.0962 540.157 55.1695 540.36 55.3155C540.562 55.4615 540.685 55.6736 540.711 55.9251C540.738 56.1765 540.668 56.456 540.51 56.7282C540.352 57.0004 540.113 57.2531 539.823 57.4542C539.434 57.7239 538.983 57.882 538.567 57.8936C538.151 57.9053 537.805 57.7697 537.605 57.5165Z" fill="#F0F0F0"></path><path d="M531.22 61.2476C531.161 61.1752 531.125 61.0878 531.114 60.9906C531.103 60.8933 531.116 60.7882 531.155 60.6812C531.193 60.5743 531.255 60.4676 531.336 60.3675C531.418 60.2674 531.518 60.1758 531.631 60.0981C531.857 59.9415 532.12 59.8495 532.363 59.842C532.605 59.8346 532.807 59.9122 532.925 60.0582C533.038 60.2074 533.058 60.4105 532.981 60.6249C532.905 60.8393 532.737 61.0482 532.515 61.2077C532.403 61.2865 532.281 61.3501 532.155 61.3948C532.029 61.4395 531.902 61.4644 531.781 61.4681C531.661 61.4718 531.549 61.4543 531.453 61.4164C531.357 61.3786 531.277 61.3212 531.22 61.2476Z" fill="#FAFAFA"></path><path d="M310.052 269.266C310.147 269.436 310.167 269.645 310.109 269.867C310.05 270.09 309.917 270.315 309.726 270.515C309.534 270.714 309.293 270.88 309.032 270.99C308.772 271.1 308.504 271.15 308.262 271.133C308.02 271.116 307.816 271.033 307.674 270.896C307.532 270.758 307.46 270.571 307.466 270.358C307.472 270.145 307.557 269.917 307.709 269.701C307.861 269.485 308.073 269.292 308.32 269.146C308.651 268.952 309.019 268.855 309.343 268.878C309.668 268.9 309.922 269.04 310.052 269.266Z" fill="#FAFAFA"></path><path d="M319.652 274.98C319.762 275.16 319.819 275.371 319.818 275.6C319.818 275.829 319.761 276.072 319.65 276.314C319.539 276.557 319.377 276.795 319.172 277.013C318.968 277.232 318.725 277.428 318.459 277.589C318.06 277.832 317.622 277.989 317.199 278.041C316.777 278.092 316.39 278.035 316.086 277.877C315.783 277.719 315.577 277.467 315.494 277.153C315.412 276.838 315.457 276.476 315.624 276.112C315.79 275.747 316.071 275.397 316.431 275.105C316.79 274.813 317.212 274.592 317.643 274.471C318.074 274.35 318.495 274.334 318.852 274.425C319.21 274.515 319.488 274.709 319.652 274.98Z" fill="#FAFAFA"></path><g opacity="0.5"><path d="M413.991 141.315C414.254 141.249 414.507 141.247 414.719 141.31C414.93 141.373 415.091 141.498 415.18 141.669C415.269 141.84 415.283 142.05 415.22 142.272C415.157 142.494 415.02 142.718 414.826 142.916C414.632 143.114 414.389 143.277 414.129 143.384C413.869 143.492 413.603 143.539 413.365 143.52C413.126 143.501 412.926 143.416 412.789 143.277C412.652 143.138 412.585 142.95 412.596 142.737C412.614 142.45 412.771 142.14 413.032 141.874C413.293 141.608 413.638 141.407 413.991 141.315Z" fill="#FAFAFA"></path><path d="M427.199 134.403C427.63 134.297 428.044 134.296 428.389 134.402C428.734 134.507 428.995 134.715 429.138 134.997C429.282 135.279 429.302 135.625 429.195 135.989C429.089 136.353 428.861 136.72 428.54 137.043C428.219 137.367 427.82 137.632 427.393 137.805C426.966 137.979 426.53 138.053 426.141 138.019C425.751 137.985 425.426 137.843 425.205 137.612C424.984 137.381 424.877 137.071 424.899 136.722C424.932 136.251 425.192 135.743 425.623 135.309C426.054 134.875 426.62 134.549 427.199 134.403Z" fill="#FAFAFA"></path></g><g opacity="0.5"><path d="M356.992 315.907C356.815 316.273 356.525 316.623 356.159 316.912C355.792 317.201 355.366 317.417 354.933 317.532C354.501 317.647 354.082 317.656 353.73 317.558C353.378 317.46 353.108 317.259 352.955 316.981C352.802 316.703 352.773 316.36 352.87 315.996C352.968 315.632 353.189 315.263 353.505 314.936C353.82 314.609 354.217 314.339 354.643 314.159C355.07 313.979 355.508 313.899 355.902 313.927C356.427 313.965 356.837 314.195 357.041 314.566C357.245 314.937 357.228 315.419 356.992 315.907Z" fill="#FAFAFA"></path><path d="M348.623 320.571C348.518 320.791 348.344 321.001 348.125 321.175C347.905 321.349 347.649 321.479 347.389 321.548C347.13 321.617 346.878 321.623 346.667 321.564C346.455 321.504 346.294 321.383 346.203 321.216C346.111 321.049 346.095 320.842 346.155 320.624C346.214 320.405 346.348 320.184 346.539 319.988C346.73 319.792 346.968 319.631 347.225 319.524C347.482 319.418 347.744 319.371 347.98 319.391C348.141 319.394 348.286 319.429 348.407 319.492C348.529 319.555 348.622 319.645 348.683 319.756C348.744 319.868 348.77 319.998 348.759 320.138C348.749 320.278 348.703 320.426 348.623 320.571Z" fill="#FAFAFA"></path><path d="M348.117 313.439C348.039 313.618 347.903 313.791 347.728 313.935C347.553 314.08 347.346 314.189 347.135 314.249C346.924 314.309 346.718 314.316 346.545 314.271C346.371 314.225 346.238 314.128 346.163 313.993C346.088 313.858 346.074 313.69 346.123 313.512C346.172 313.335 346.282 313.155 346.438 312.996C346.594 312.838 346.79 312.709 346.999 312.625C347.208 312.541 347.421 312.507 347.61 312.527C347.846 312.552 348.029 312.66 348.123 312.829C348.217 312.998 348.215 313.215 348.117 313.439Z" fill="#FAFAFA"></path></g><g opacity="0.5"><path d="M45.753 290.222C45.5752 290.585 45.2854 290.931 44.9203 291.218C44.5553 291.504 44.1313 291.717 43.702 291.829C43.2727 291.942 42.8573 291.95 42.5085 291.851C42.1597 291.752 41.8931 291.552 41.7423 291.275C41.5915 290.998 41.5634 290.658 41.6616 290.296C41.7597 289.934 41.9796 289.568 42.2935 289.244C42.6074 288.919 43.0012 288.651 43.4251 288.472C43.849 288.294 44.284 288.214 44.675 288.243C45.1994 288.281 45.6075 288.511 45.8097 288.882C46.0118 289.253 45.9915 289.735 45.753 290.222Z" fill="#FAFAFA"></path><path d="M37.3671 294.927C37.2563 295.13 37.085 295.32 36.8746 295.476C36.6641 295.631 36.4236 295.743 36.1828 295.799C35.942 295.855 35.7116 295.852 35.52 295.791C35.3285 295.73 35.1842 295.612 35.105 295.453C35.0258 295.295 35.0152 295.102 35.0746 294.898C35.1339 294.694 35.2606 294.489 35.4389 294.308C35.6171 294.127 35.8392 293.977 36.0776 293.878C36.316 293.779 36.5603 293.734 36.7801 293.75C36.9326 293.761 37.0694 293.8 37.1822 293.866C37.295 293.932 37.3815 294.023 37.4364 294.133C37.4913 294.243 37.5135 294.37 37.5016 294.506C37.4896 294.643 37.4439 294.786 37.3671 294.927Z" fill="#FAFAFA"></path><path d="M36.8704 287.795C36.7845 287.97 36.6445 288.138 36.4682 288.276C36.2918 288.414 36.087 288.517 35.8797 288.572C35.6723 288.626 35.4718 288.63 35.3033 288.582C35.1348 288.534 35.0061 288.438 34.9333 288.304C34.8605 288.17 34.8469 288.006 34.8943 287.831C34.9417 287.656 35.048 287.479 35.1996 287.323C35.3512 287.166 35.5414 287.036 35.7462 286.95C35.9509 286.864 36.161 286.826 36.3498 286.839C36.6031 286.858 36.8002 286.969 36.8978 287.148C36.9954 287.327 36.9855 287.56 36.8704 287.795Z" fill="#FAFAFA"></path></g><path d="M308.84 44.4284C308.733 44.6518 308.557 44.8653 308.333 45.0417C308.11 45.2182 307.849 45.3497 307.585 45.4197C307.32 45.4897 307.064 45.495 306.847 45.435C306.631 45.3749 306.465 45.2522 306.369 45.0824C306.274 44.9126 306.254 44.7032 306.312 44.4808C306.37 44.2584 306.503 44.0329 306.695 43.833C306.886 43.633 307.127 43.4674 307.388 43.3572C307.649 43.247 307.917 43.1972 308.159 43.214C308.483 43.2365 308.737 43.377 308.865 43.6048C308.993 43.8326 308.984 44.1288 308.84 44.4284Z" fill="#FAFAFA"></path><path d="M321.64 29.9406L323.195 32.6535L327.322 32.237C327.41 32.2284 327.49 32.2414 327.554 32.2743C327.617 32.3072 327.662 32.3588 327.682 32.4232C327.703 32.4877 327.698 32.5623 327.669 32.6388C327.639 32.7152 327.587 32.7904 327.517 32.8558L324.244 35.9582L324.61 39.2263C324.62 39.296 324.604 39.3739 324.563 39.4507C324.523 39.5276 324.46 39.6004 324.383 39.6607C324.305 39.7209 324.215 39.7662 324.124 39.7911C324.033 39.8161 323.944 39.8198 323.867 39.8018L320.297 39.003L316.387 41.4343C316.304 41.4862 316.212 41.5212 316.122 41.535C316.033 41.5489 315.949 41.5412 315.881 41.5128C315.813 41.4844 315.763 41.4364 315.737 41.3744C315.711 41.3123 315.71 41.2387 315.734 41.162L316.792 37.5818L314.01 35.8216C313.952 35.7829 313.914 35.7264 313.902 35.6587C313.889 35.5909 313.902 35.5146 313.938 35.4384C313.975 35.3621 314.034 35.289 314.108 35.2273C314.183 35.1656 314.27 35.1178 314.36 35.0893L318.545 33.6715L320.734 30.1481C320.774 30.0641 320.841 29.984 320.926 29.9188C321.011 29.8536 321.109 29.8065 321.209 29.7838C321.308 29.7611 321.402 29.764 321.479 29.7921C321.556 29.8201 321.612 29.872 321.64 29.9406Z" fill="#FAFAFA"></path><path d="M150.281 187.545L149.394 190.326L151.491 191.736C151.536 191.766 151.565 191.809 151.575 191.861C151.585 191.914 151.575 191.973 151.547 192.032C151.519 192.091 151.473 192.147 151.416 192.195C151.358 192.242 151.29 192.279 151.221 192.301L147.953 193.339L146.196 196.06C146.158 196.116 146.105 196.168 146.043 196.209C145.981 196.249 145.912 196.278 145.844 196.291C145.776 196.304 145.712 196.302 145.658 196.283C145.604 196.265 145.563 196.232 145.538 196.188L144.396 194.055L141.217 194.321C141.148 194.328 141.085 194.318 141.035 194.292C140.986 194.266 140.951 194.225 140.936 194.174C140.922 194.123 140.927 194.064 140.951 194.004C140.976 193.944 141.019 193.885 141.075 193.835L143.638 191.483L143.423 188.928C143.424 188.876 143.441 188.821 143.473 188.767C143.506 188.713 143.552 188.662 143.607 188.619C143.662 188.577 143.725 188.544 143.79 188.523C143.855 188.503 143.919 188.495 143.977 188.502L146.705 189.178L149.745 187.345C149.81 187.302 149.884 187.272 149.956 187.258C150.028 187.245 150.096 187.249 150.152 187.27C150.208 187.291 150.25 187.328 150.273 187.376C150.296 187.425 150.298 187.483 150.281 187.545Z" fill="#FAFAFA"></path><path d="M504.481 27.2658L507.664 26.9787L510.115 24.5337C510.169 24.4826 510.234 24.4408 510.303 24.4133C510.372 24.3858 510.443 24.3735 510.506 24.3779C510.57 24.3824 510.625 24.4033 510.664 24.4383C510.703 24.4734 510.725 24.5212 510.727 24.5761L510.98 27.1222L513.815 27.6322C513.874 27.6427 513.923 27.6688 513.955 27.7077C513.988 27.7465 514.003 27.7965 514 27.8522C513.996 27.9079 513.973 27.9671 513.934 28.0231C513.895 28.0792 513.842 28.1301 513.779 28.17L510.74 30.034L510.051 32.7849C510.035 32.8437 510 32.9031 509.951 32.9567C509.902 33.0104 509.841 33.0562 509.773 33.0893C509.705 33.1224 509.634 33.1415 509.567 33.1446C509.5 33.1476 509.44 33.1345 509.393 33.1066L507.262 31.7162L504.064 32.8883C503.994 32.9146 503.924 32.9254 503.86 32.9194C503.797 32.9134 503.744 32.8908 503.706 32.8544C503.669 32.8179 503.649 32.7689 503.648 32.7132C503.648 32.6574 503.667 32.5971 503.705 32.5392L505.434 29.8172L504.062 27.7986C504.032 27.7566 504.021 27.704 504.03 27.6466C504.038 27.5892 504.066 27.5294 504.11 27.4739C504.154 27.4184 504.212 27.3695 504.277 27.3327C504.343 27.296 504.414 27.2728 504.481 27.2658Z" fill="#FAFAFA"></path><path d="M190.716 308.329C190.907 308.486 191.015 308.706 191.027 308.962C191.039 309.219 190.954 309.499 190.784 309.769C190.613 310.039 190.364 310.286 190.068 310.478C189.771 310.67 189.442 310.8 189.12 310.85C188.799 310.9 188.499 310.869 188.261 310.76C188.022 310.651 187.854 310.469 187.779 310.238C187.703 310.007 187.723 309.736 187.836 309.46C187.949 309.184 188.151 308.916 188.414 308.688C188.589 308.536 188.788 308.406 188.999 308.305C189.21 308.205 189.428 308.135 189.643 308.102C189.857 308.069 190.062 308.071 190.247 308.11C190.431 308.149 190.591 308.224 190.716 308.329Z" fill="#F0F0F0"></path><path d="M196.598 303.962C196.749 304.083 196.812 304.27 196.774 304.482C196.736 304.694 196.599 304.914 196.395 305.093C196.293 305.182 196.177 305.258 196.055 305.316C195.932 305.375 195.804 305.415 195.68 305.435C195.555 305.454 195.435 305.452 195.328 305.43C195.22 305.407 195.127 305.364 195.054 305.303C194.98 305.243 194.926 305.167 194.896 305.078C194.866 304.989 194.861 304.889 194.88 304.785C194.899 304.68 194.943 304.573 195.008 304.468C195.073 304.364 195.159 304.265 195.26 304.177C195.362 304.089 195.477 304.014 195.599 303.955C195.721 303.897 195.848 303.856 195.972 303.836C196.096 303.816 196.215 303.817 196.323 303.839C196.43 303.86 196.524 303.902 196.598 303.962Z" fill="#FAFAFA"></path><path d="M230.86 332.325L227.582 333.038L225.511 335.651C225.467 335.706 225.409 335.755 225.343 335.792C225.277 335.829 225.206 335.851 225.138 335.858C225.071 335.865 225.009 335.855 224.96 335.829C224.91 335.804 224.876 335.764 224.861 335.714L224.107 333.381L221.046 333.299C220.979 333.298 220.921 333.28 220.877 333.247C220.834 333.214 220.808 333.168 220.803 333.113C220.797 333.057 220.812 332.997 220.845 332.937C220.879 332.877 220.93 332.821 220.992 332.776L223.79 330.625L223.98 327.957C223.982 327.9 224.004 327.839 224.044 327.781C224.083 327.723 224.139 327.67 224.204 327.629C224.269 327.588 224.341 327.56 224.411 327.55C224.481 327.539 224.547 327.545 224.6 327.568L227.09 328.573L230.261 327.01C230.328 326.975 230.4 326.956 230.467 326.953C230.534 326.95 230.594 326.964 230.64 326.993C230.686 327.022 230.716 327.066 230.726 327.118C230.737 327.17 230.728 327.229 230.7 327.289L229.372 330.061L231.142 331.761C231.186 331.792 231.214 331.836 231.223 331.889C231.232 331.942 231.221 332.001 231.191 332.06C231.162 332.119 231.115 332.175 231.057 332.222C230.998 332.269 230.93 332.305 230.86 332.325Z" fill="#FAFAFA"></path><path d="M519.241 148.453C519.674 148.345 520.092 148.344 520.441 148.449C520.791 148.554 521.057 148.76 521.205 149.043C521.354 149.325 521.379 149.671 521.276 150.036C521.174 150.401 520.949 150.769 520.63 151.093C520.311 151.418 519.913 151.684 519.485 151.859C519.057 152.034 518.618 152.11 518.225 152.076C517.832 152.043 517.502 151.902 517.275 151.671C517.049 151.441 516.938 151.131 516.955 150.78C516.967 150.547 517.035 150.302 517.156 150.058C517.277 149.815 517.449 149.578 517.661 149.362C517.874 149.146 518.123 148.954 518.394 148.798C518.665 148.642 518.953 148.525 519.241 148.453Z" fill="#FAFAFA"></path></svg>