<svg xmlns="http://www.w3.org/2000/svg" width="578" height="350" viewBox="0 0 578 350" fill="none"><path opacity="0.5" d="M393.172 287.13C391.262 287.004 389.633 286.365 388.49 285.293C387.347 284.222 386.742 282.766 386.752 281.111C386.762 279.455 387.385 277.673 388.544 275.991C389.703 274.309 391.345 272.801 393.262 271.66C395.18 270.518 397.286 269.794 399.316 269.578C401.346 269.361 403.207 269.664 404.665 270.446C406.123 271.228 407.112 272.455 407.507 273.972C407.901 275.489 407.684 277.227 406.883 278.967C405.808 281.301 403.76 283.472 401.188 285.002C398.617 286.533 395.734 287.298 393.172 287.13ZM400.95 270.246C399.194 270.13 397.26 270.491 395.391 271.284C393.523 272.076 391.804 273.264 390.451 274.697C389.099 276.13 388.174 277.744 387.794 279.335C387.414 280.926 387.596 282.423 388.316 283.635C389.037 284.848 390.263 285.722 391.841 286.147C393.419 286.573 395.277 286.53 397.181 286.025C399.084 285.52 400.948 284.575 402.535 283.309C404.123 282.044 405.363 280.515 406.1 278.916C407.084 276.772 407.095 274.655 406.129 273.03C405.164 271.405 403.301 270.403 400.95 270.246Z" fill="#BA68C8"></path><path d="M399.942 278.51C399.717 278.999 399.337 279.467 398.851 279.855C398.365 280.242 397.795 280.531 397.212 280.686C396.629 280.841 396.06 280.854 395.578 280.723C395.095 280.593 394.719 280.326 394.499 279.954C394.278 279.583 394.223 279.125 394.339 278.638C394.455 278.151 394.738 277.657 395.152 277.219C395.566 276.78 396.092 276.416 396.664 276.174C397.236 275.931 397.828 275.821 398.366 275.856C399.086 275.903 399.657 276.21 399.953 276.707C400.248 277.205 400.244 277.853 399.942 278.51Z" fill="white"></path><path opacity="0.5" d="M336.628 120.873C333.618 120.674 331.05 119.667 329.249 117.979C327.449 116.29 326.496 113.996 326.512 111.386C326.527 108.776 327.511 105.968 329.338 103.318C331.165 100.667 333.753 98.2921 336.775 96.4939C339.798 94.6956 343.118 93.5547 346.316 93.2154C349.515 92.8761 352.448 93.3537 354.744 94.5877C357.04 95.8217 358.597 97.7567 359.217 100.148C359.837 102.539 359.492 105.279 358.227 108.022C356.528 111.695 353.3 115.112 349.251 117.521C345.202 119.93 340.662 121.136 336.628 120.873ZM349.067 93.8689C346.21 93.6829 343.062 94.2732 340.021 95.565C336.981 96.8569 334.185 98.7922 331.988 101.126C329.79 103.46 328.29 106.087 327.677 108.676C327.064 111.264 327.365 113.697 328.543 115.667C329.721 117.637 331.722 119.054 334.294 119.741C336.865 120.427 339.891 120.351 342.989 119.523C346.087 118.694 349.116 117.15 351.695 115.087C354.274 113.023 356.285 110.532 357.475 107.929C359.079 104.44 359.096 100.995 357.523 98.3505C355.95 95.7062 352.915 94.0792 349.086 93.827L349.067 93.8689Z" fill="#BA68C8"></path><path d="M347.379 107.264C347.018 108.048 346.41 108.797 345.631 109.418C344.853 110.038 343.939 110.501 343.006 110.749C342.073 110.997 341.162 111.018 340.388 110.809C339.615 110.601 339.013 110.172 338.66 109.577C338.307 108.983 338.218 108.249 338.404 107.469C338.591 106.689 339.044 105.898 339.707 105.195C340.37 104.493 341.213 103.91 342.129 103.522C343.045 103.133 343.993 102.956 344.854 103.013C345.426 103.049 345.946 103.188 346.383 103.422C346.82 103.655 347.166 103.979 347.401 104.374C347.635 104.769 347.754 105.227 347.75 105.723C347.747 106.219 347.621 106.743 347.379 107.264Z" fill="white"></path><path opacity="0.5" d="M484.707 74.9502C482.797 74.8245 481.167 74.1855 480.024 73.1141C478.881 72.0427 478.277 70.5871 478.286 68.9312C478.296 67.2753 478.919 65.4936 480.078 63.8114C481.237 62.1292 482.879 60.6221 484.796 59.4805C486.714 58.339 488.821 57.6143 490.85 57.3982C492.88 57.1821 494.742 57.4842 496.2 58.2664C497.657 59.0485 498.646 60.2756 499.041 61.7924C499.436 63.3092 499.219 65.0476 498.417 66.7877C497.339 69.1202 495.291 71.2894 492.721 72.8197C490.15 74.3499 487.268 75.1161 484.707 74.9502ZM492.484 58.0663C490.729 57.9507 488.794 58.3119 486.926 59.1043C485.057 59.8966 483.338 61.0844 481.985 62.5176C480.633 63.9508 479.709 65.5649 479.329 67.1559C478.949 68.7469 479.13 70.2432 479.851 71.4557C480.571 72.6682 481.797 73.5424 483.375 73.9678C484.953 74.3931 486.811 74.3505 488.715 73.8453C490.618 73.3402 492.482 72.3951 494.069 71.1297C495.657 69.8643 496.898 68.3353 497.634 66.7362C498.619 64.5925 498.629 62.4759 497.664 60.8506C496.698 59.2253 494.835 58.2241 492.484 58.0663Z" fill="#BA68C8"></path><path d="M491.488 66.3313C491.264 66.8234 490.884 67.2946 490.397 67.685C489.909 68.0754 489.337 68.3676 488.751 68.5245C488.165 68.6815 487.593 68.696 487.107 68.5664C486.62 68.4368 486.242 68.1688 486.019 67.7965C485.796 67.4241 485.739 66.9641 485.855 66.4747C485.971 65.9853 486.255 65.4885 486.671 65.0474C487.086 64.6062 487.615 64.2404 488.19 63.9964C488.765 63.7524 489.36 63.6411 489.9 63.6767C490.258 63.6989 490.584 63.7852 490.858 63.9308C491.132 64.0763 491.349 64.2782 491.496 64.5248C491.644 64.7715 491.719 65.058 491.718 65.368C491.716 65.678 491.638 66.0054 491.488 66.3313Z" fill="white"></path><path opacity="0.5" d="M100.743 113.219C98.8333 113.093 97.2038 112.454 96.061 111.383C94.9181 110.312 94.3133 108.856 94.3229 107.2C94.3325 105.544 94.9561 103.763 96.1149 102.08C97.2737 100.398 98.9157 98.891 100.833 97.7495C102.751 96.6079 104.857 95.8833 106.887 95.6671C108.917 95.451 110.778 95.7531 112.236 96.5353C113.694 97.3174 114.683 98.5445 115.078 100.061C115.472 101.578 115.255 103.316 114.454 105.057C113.379 107.39 111.33 109.561 108.759 111.092C106.188 112.623 103.305 113.388 100.743 113.219ZM108.521 96.3353C106.765 96.2197 104.831 96.5809 102.962 97.3732C101.094 98.1655 99.3745 99.3534 98.0222 100.787C96.67 102.22 95.7454 103.834 95.3654 105.425C94.9854 107.016 95.167 108.512 95.8873 109.725C96.6076 110.937 97.8342 111.811 99.412 112.237C100.99 112.662 102.848 112.619 104.752 112.114C106.655 111.609 108.519 110.664 110.106 109.399C111.694 108.133 112.934 106.604 113.671 105.005C114.655 102.861 114.666 100.745 113.7 99.1195C112.735 97.4943 110.872 96.493 108.521 96.3353Z" fill="#BA68C8"></path><path d="M107.466 104.596C107.244 105.089 106.865 105.561 106.378 105.952C105.891 106.343 105.318 106.635 104.733 106.791C104.147 106.948 103.575 106.961 103.089 106.83C102.604 106.698 102.228 106.428 102.008 106.053C101.789 105.679 101.737 105.217 101.858 104.727C101.979 104.237 102.269 103.741 102.689 103.302C103.11 102.863 103.642 102.502 104.219 102.264C104.795 102.026 105.39 101.923 105.926 101.966C106.632 102.021 107.188 102.328 107.477 102.82C107.765 103.312 107.761 103.95 107.466 104.596Z" fill="white"></path><path d="M537.604 57.5165C537.455 57.3277 537.395 57.0835 537.432 56.8147C537.469 56.5459 537.601 56.2647 537.812 56.0065C538.023 55.7484 538.302 55.5249 538.616 55.3645C538.929 55.204 539.262 55.1137 539.572 55.105C539.882 55.0962 540.156 55.1695 540.359 55.3155C540.561 55.4615 540.684 55.6736 540.711 55.9251C540.737 56.1765 540.667 56.456 540.509 56.7282C540.351 57.0004 540.112 57.2531 539.822 57.4542C539.434 57.7239 538.982 57.882 538.566 57.8936C538.15 57.9053 537.804 57.7697 537.604 57.5165Z" fill="#F0F0F0"></path><path d="M531.219 61.2476C531.16 61.1751 531.124 61.0877 531.113 60.9905C531.102 60.8933 531.115 60.7881 531.154 60.6812C531.192 60.5742 531.254 60.4676 531.335 60.3675C531.417 60.2674 531.517 60.1758 531.63 60.098C531.856 59.9415 532.119 59.8494 532.362 59.842C532.604 59.8345 532.806 59.9122 532.924 60.0581C533.037 60.2073 533.057 60.4104 532.98 60.6248C532.904 60.8392 532.736 61.0481 532.514 61.2077C532.402 61.2864 532.28 61.35 532.154 61.3947C532.028 61.4394 531.901 61.4643 531.781 61.4681C531.66 61.4718 531.548 61.4542 531.452 61.4164C531.356 61.3785 531.276 61.3211 531.219 61.2476Z" fill="#FAFAFA"></path><path d="M310.051 269.266C310.146 269.436 310.166 269.645 310.108 269.867C310.049 270.09 309.916 270.315 309.724 270.515C309.533 270.714 309.292 270.88 309.031 270.99C308.771 271.1 308.503 271.15 308.261 271.133C308.019 271.116 307.814 271.033 307.673 270.896C307.531 270.758 307.459 270.571 307.465 270.358C307.471 270.145 307.556 269.917 307.708 269.701C307.859 269.485 308.072 269.292 308.318 269.146C308.65 268.952 309.018 268.855 309.342 268.878C309.666 268.9 309.921 269.04 310.051 269.266Z" fill="#FAFAFA"></path><path d="M319.65 274.98C319.761 275.16 319.818 275.371 319.817 275.6C319.817 275.829 319.76 276.072 319.649 276.314C319.538 276.557 319.376 276.794 319.171 277.013C318.967 277.232 318.724 277.427 318.458 277.588C318.059 277.832 317.621 277.989 317.198 278.04C316.776 278.092 316.388 278.035 316.085 277.877C315.781 277.719 315.576 277.467 315.493 277.152C315.411 276.838 315.456 276.476 315.623 276.112C315.789 275.747 316.07 275.397 316.429 275.105C316.789 274.813 317.211 274.592 317.642 274.471C318.073 274.35 318.494 274.334 318.851 274.424C319.209 274.515 319.487 274.708 319.65 274.98Z" fill="#FAFAFA"></path><g opacity="0.5"><path d="M413.99 141.315C414.253 141.248 414.506 141.247 414.718 141.31C414.93 141.373 415.09 141.498 415.179 141.669C415.269 141.84 415.283 142.05 415.219 142.272C415.156 142.494 415.019 142.718 414.825 142.916C414.631 143.114 414.388 143.277 414.128 143.384C413.868 143.492 413.602 143.539 413.364 143.52C413.125 143.501 412.925 143.416 412.788 143.277C412.652 143.138 412.584 142.95 412.595 142.737C412.613 142.45 412.77 142.14 413.031 141.874C413.292 141.608 413.637 141.407 413.99 141.315Z" fill="#FAFAFA"></path><path d="M427.198 134.403C427.629 134.297 428.043 134.296 428.388 134.402C428.733 134.507 428.994 134.715 429.138 134.997C429.281 135.279 429.301 135.625 429.194 135.989C429.088 136.353 428.86 136.72 428.539 137.043C428.218 137.366 427.819 137.632 427.392 137.805C426.965 137.979 426.529 138.053 426.14 138.019C425.75 137.985 425.425 137.843 425.204 137.612C424.983 137.381 424.876 137.071 424.898 136.722C424.931 136.251 425.191 135.743 425.622 135.309C426.053 134.875 426.619 134.549 427.198 134.403Z" fill="#FAFAFA"></path></g><g opacity="0.5"><path d="M356.991 315.907C356.814 316.273 356.524 316.622 356.157 316.912C355.791 317.201 355.364 317.417 354.932 317.532C354.5 317.647 354.081 317.656 353.729 317.558C353.377 317.46 353.107 317.259 352.954 316.981C352.801 316.703 352.771 316.36 352.869 315.996C352.967 315.632 353.188 315.263 353.503 314.936C353.819 314.609 354.215 314.338 354.642 314.159C355.069 313.979 355.507 313.899 355.901 313.927C356.426 313.965 356.836 314.195 357.04 314.566C357.244 314.937 357.226 315.419 356.991 315.907Z" fill="#FAFAFA"></path><path d="M348.622 320.571C348.517 320.791 348.343 321.001 348.124 321.175C347.904 321.349 347.648 321.479 347.388 321.548C347.128 321.617 346.877 321.623 346.666 321.563C346.454 321.504 346.293 321.383 346.202 321.216C346.11 321.049 346.094 320.842 346.153 320.624C346.213 320.405 346.347 320.183 346.538 319.988C346.728 319.792 346.967 319.63 347.224 319.524C347.481 319.418 347.743 319.371 347.979 319.39C348.14 319.394 348.285 319.429 348.406 319.492C348.527 319.555 348.621 319.645 348.682 319.756C348.743 319.868 348.769 319.998 348.758 320.138C348.748 320.278 348.702 320.426 348.622 320.571Z" fill="#FAFAFA"></path><path d="M348.116 313.439C348.038 313.617 347.902 313.79 347.727 313.935C347.552 314.079 347.345 314.189 347.134 314.249C346.923 314.309 346.717 314.316 346.544 314.27C346.37 314.225 346.237 314.128 346.162 313.993C346.087 313.857 346.073 313.69 346.122 313.512C346.171 313.334 346.28 313.155 346.437 312.996C346.593 312.838 346.788 312.708 346.997 312.625C347.207 312.541 347.42 312.507 347.609 312.527C347.845 312.552 348.028 312.66 348.122 312.829C348.216 312.997 348.214 313.215 348.116 313.439Z" fill="#FAFAFA"></path></g><g opacity="0.5"><path d="M45.752 290.222C45.5742 290.585 45.2844 290.931 44.9194 291.217C44.5543 291.504 44.1303 291.717 43.701 291.829C43.2717 291.942 42.8564 291.95 42.5075 291.851C42.1587 291.752 41.8921 291.552 41.7413 291.275C41.5906 290.998 41.5625 290.658 41.6606 290.296C41.7587 289.934 41.9786 289.568 42.2925 289.243C42.6064 288.919 43.0002 288.65 43.4241 288.472C43.8481 288.294 44.283 288.214 44.674 288.243C45.1984 288.281 45.6065 288.51 45.8087 288.882C46.0109 289.253 45.9905 289.735 45.752 290.222Z" fill="#FAFAFA"></path><path d="M37.3662 294.927C37.2554 295.13 37.0842 295.32 36.8737 295.476C36.6632 295.631 36.4227 295.743 36.1819 295.799C35.9412 295.855 35.7108 295.852 35.5192 295.791C35.3276 295.73 35.1833 295.612 35.1041 295.453C35.0249 295.295 35.0144 295.102 35.0737 294.898C35.1331 294.694 35.2597 294.489 35.438 294.308C35.6163 294.127 35.8384 293.977 36.0768 293.878C36.3152 293.779 36.5594 293.734 36.7793 293.75C36.9317 293.761 37.0685 293.8 37.1813 293.866C37.2942 293.932 37.3807 294.023 37.4356 294.133C37.4905 294.243 37.5126 294.37 37.5007 294.506C37.4888 294.643 37.443 294.786 37.3662 294.927Z" fill="#FAFAFA"></path><path d="M36.8694 287.795C36.7835 287.97 36.6435 288.138 36.4672 288.276C36.2908 288.414 36.0861 288.517 35.8787 288.572C35.6714 288.626 35.4708 288.63 35.3023 288.582C35.1339 288.534 35.0051 288.438 34.9323 288.304C34.8595 288.17 34.846 288.006 34.8934 287.831C34.9408 287.656 35.047 287.479 35.1986 287.323C35.3502 287.166 35.5405 287.036 35.7452 286.95C35.9499 286.864 36.16 286.826 36.3489 286.839C36.6021 286.858 36.7992 286.969 36.8968 287.148C36.9944 287.327 36.9846 287.56 36.8694 287.795Z" fill="#FAFAFA"></path></g><path d="M308.84 44.4284C308.732 44.6518 308.556 44.8652 308.332 45.0417C308.109 45.2181 307.849 45.3496 307.584 45.4197C307.32 45.4897 307.063 45.495 306.846 45.4349C306.63 45.3749 306.464 45.2522 306.368 45.0823C306.273 44.9125 306.253 44.7031 306.311 44.4807C306.369 44.2583 306.502 44.0329 306.694 43.8329C306.885 43.6329 307.127 43.4673 307.387 43.3572C307.648 43.247 307.916 43.1971 308.158 43.2139C308.482 43.2364 308.737 43.377 308.864 43.6047C308.992 43.8325 308.983 44.1288 308.84 44.4284Z" fill="#FAFAFA"></path><path d="M321.638 29.9406L323.193 32.6534L327.321 32.2369C327.409 32.2284 327.489 32.2413 327.553 32.2742C327.616 32.3071 327.661 32.3588 327.681 32.4232C327.701 32.4876 327.697 32.5623 327.667 32.6387C327.638 32.7152 327.586 32.7904 327.516 32.8557L324.243 35.9581L324.609 39.2263C324.619 39.296 324.602 39.3738 324.562 39.4507C324.522 39.5276 324.459 39.6004 324.382 39.6606C324.304 39.7209 324.214 39.7661 324.123 39.7911C324.031 39.816 323.942 39.8197 323.866 39.8017L320.296 39.003L316.386 41.4342C316.302 41.4862 316.211 41.5211 316.121 41.535C316.032 41.5489 315.948 41.5411 315.88 41.5127C315.812 41.4843 315.762 41.4363 315.736 41.3743C315.71 41.3123 315.709 41.2387 315.733 41.162L316.791 37.5818L314.009 35.8216C313.951 35.7828 313.913 35.7264 313.901 35.6586C313.888 35.5909 313.901 35.5145 313.937 35.4383C313.974 35.3621 314.032 35.2889 314.107 35.2272C314.182 35.1655 314.269 35.1177 314.359 35.0892L318.544 33.6715L320.733 30.148C320.773 30.064 320.84 29.984 320.925 29.9188C321.01 29.8536 321.108 29.8064 321.207 29.7837C321.307 29.761 321.401 29.7639 321.478 29.792C321.555 29.8201 321.611 29.872 321.638 29.9406Z" fill="#FAFAFA"></path><path d="M150.28 187.544L149.394 190.326L151.49 191.736C151.535 191.765 151.564 191.809 151.574 191.861C151.584 191.914 151.575 191.973 151.546 192.032C151.518 192.091 151.472 192.147 151.415 192.195C151.357 192.242 151.289 192.279 151.22 192.301L147.952 193.339L146.195 196.06C146.157 196.116 146.104 196.168 146.042 196.208C145.98 196.249 145.911 196.278 145.843 196.291C145.775 196.304 145.711 196.301 145.657 196.283C145.603 196.265 145.562 196.232 145.538 196.187L144.395 194.054L141.216 194.32C141.147 194.328 141.084 194.318 141.035 194.291C140.985 194.265 140.951 194.225 140.936 194.174C140.921 194.123 140.926 194.064 140.95 194.004C140.975 193.944 141.018 193.885 141.075 193.835L143.637 191.483L143.422 188.928C143.423 188.876 143.44 188.82 143.473 188.766C143.505 188.712 143.551 188.662 143.606 188.619C143.662 188.577 143.725 188.544 143.789 188.523C143.854 188.503 143.918 188.495 143.976 188.502L146.705 189.177L149.744 187.345C149.81 187.302 149.883 187.271 149.955 187.258C150.027 187.245 150.095 187.249 150.151 187.27C150.207 187.291 150.249 187.327 150.272 187.376C150.295 187.425 150.297 187.483 150.28 187.544Z" fill="#FAFAFA"></path><path d="M504.48 27.2658L507.663 26.9786L510.114 24.5336C510.168 24.4825 510.233 24.4408 510.302 24.4132C510.371 24.3857 510.441 24.3734 510.505 24.3779C510.569 24.3823 510.624 24.4032 510.663 24.4383C510.702 24.4733 510.724 24.5211 510.726 24.5761L510.979 27.1221L513.814 27.6321C513.873 27.6426 513.922 27.6688 513.954 27.7076C513.987 27.7464 514.002 27.7965 513.999 27.8521C513.995 27.9078 513.972 27.967 513.933 28.0231C513.894 28.0792 513.84 28.13 513.778 28.1699L510.739 30.0339L510.05 32.7848C510.034 32.8436 509.999 32.903 509.95 32.9567C509.901 33.0103 509.839 33.0562 509.772 33.0893C509.704 33.1224 509.633 33.1415 509.566 33.1445C509.499 33.1476 509.439 33.1345 509.392 33.1066L507.261 31.7161L504.063 32.8883C503.993 32.9146 503.923 32.9253 503.859 32.9193C503.796 32.9133 503.743 32.8908 503.705 32.8543C503.668 32.8178 503.647 32.7689 503.647 32.7131C503.647 32.6574 503.666 32.5971 503.703 32.5392L505.433 29.8172L504.06 27.7985C504.031 27.7566 504.02 27.7039 504.029 27.6465C504.037 27.5891 504.065 27.5293 504.109 27.4738C504.153 27.4184 504.21 27.3695 504.276 27.3327C504.342 27.2959 504.413 27.2727 504.48 27.2658Z" fill="#FAFAFA"></path><path d="M190.715 308.329C190.906 308.486 191.014 308.706 191.026 308.962C191.038 309.219 190.954 309.499 190.783 309.769C190.612 310.039 190.363 310.286 190.067 310.478C189.77 310.67 189.441 310.8 189.119 310.85C188.798 310.9 188.498 310.869 188.26 310.76C188.021 310.651 187.853 310.469 187.778 310.238C187.702 310.007 187.722 309.736 187.835 309.46C187.949 309.184 188.15 308.916 188.413 308.689C188.588 308.536 188.787 308.406 188.998 308.305C189.209 308.205 189.428 308.136 189.642 308.102C189.856 308.069 190.061 308.072 190.246 308.111C190.43 308.15 190.59 308.224 190.715 308.329Z" fill="#F0F0F0"></path><path d="M196.597 303.962C196.748 304.083 196.811 304.27 196.773 304.482C196.735 304.694 196.598 304.914 196.394 305.093C196.292 305.182 196.176 305.258 196.053 305.316C195.931 305.375 195.803 305.415 195.678 305.435C195.554 305.454 195.434 305.452 195.327 305.43C195.219 305.407 195.126 305.364 195.053 305.303C194.979 305.243 194.925 305.167 194.895 305.078C194.865 304.989 194.86 304.889 194.879 304.785C194.898 304.68 194.942 304.573 195.007 304.468C195.072 304.364 195.158 304.265 195.259 304.177C195.361 304.089 195.476 304.014 195.598 303.955C195.72 303.897 195.847 303.856 195.971 303.836C196.095 303.816 196.214 303.817 196.322 303.839C196.429 303.86 196.523 303.902 196.597 303.962Z" fill="#FAFAFA"></path><path d="M230.859 332.325L227.581 333.038L225.51 335.651C225.466 335.706 225.408 335.755 225.342 335.792C225.276 335.828 225.205 335.851 225.137 335.858C225.069 335.864 225.007 335.854 224.958 335.829C224.909 335.803 224.875 335.763 224.86 335.714L224.106 333.381L221.045 333.298C220.978 333.298 220.92 333.28 220.876 333.247C220.833 333.214 220.807 333.168 220.802 333.112C220.796 333.057 220.811 332.996 220.844 332.937C220.878 332.877 220.929 332.821 220.991 332.776L223.789 330.625L223.979 327.957C223.981 327.9 224.003 327.839 224.042 327.781C224.082 327.722 224.138 327.67 224.203 327.629C224.268 327.588 224.34 327.56 224.41 327.55C224.48 327.539 224.546 327.545 224.598 327.568L227.088 328.573L230.259 327.009C230.327 326.975 230.398 326.956 230.466 326.953C230.533 326.95 230.593 326.964 230.639 326.993C230.685 327.022 230.715 327.066 230.725 327.118C230.736 327.17 230.727 327.229 230.699 327.288L229.371 330.06L231.141 331.761C231.185 331.792 231.213 331.836 231.222 331.889C231.231 331.942 231.22 332.001 231.19 332.06C231.161 332.119 231.114 332.175 231.056 332.222C230.997 332.269 230.929 332.305 230.859 332.325Z" fill="#FAFAFA"></path><path d="M519.24 148.453C519.673 148.345 520.091 148.344 520.44 148.449C520.79 148.554 521.056 148.76 521.204 149.043C521.353 149.325 521.378 149.671 521.275 150.036C521.173 150.401 520.948 150.769 520.629 151.093C520.31 151.418 519.912 151.684 519.484 151.859C519.056 152.034 518.617 152.11 518.224 152.076C517.831 152.043 517.501 151.902 517.275 151.671C517.048 151.441 516.937 151.13 516.954 150.78C516.966 150.547 517.034 150.301 517.155 150.058C517.276 149.815 517.448 149.578 517.661 149.362C517.873 149.146 518.122 148.954 518.393 148.798C518.664 148.642 518.952 148.525 519.24 148.453Z" fill="#FAFAFA"></path></svg>