<svg xmlns="http://www.w3.org/2000/svg" width="4" height="4" viewBox="0 0 4 4" fill="none"><path d="M3.5614 1.69885C3.57806 2.05697 3.48631 2.41181 3.29811 2.71694C3.10992 3.02208 2.83401 3.26333 2.50652 3.40919C2.17903 3.55505 1.81516 3.59873 1.46246 3.5345C1.10976 3.47028 0.784619 3.30113 0.529568 3.04919C0.274517 2.79725 0.101416 2.4742 0.032866 2.12231C-0.0356837 1.77042 0.00355276 1.40603 0.145384 1.07677C0.287214 0.747518 0.525041 0.468728 0.827845 0.276804C1.13065 0.0848809 1.48432 -0.0112222 1.84261 0.00104351C2.29001 0.0163595 2.71526 0.199527 3.03374 0.514121C3.35222 0.828715 3.5406 1.25167 3.5614 1.69885V1.69885Z" fill="#FAFAFA"></path></svg>